<svg id="Ebene_1" data-name="Ebene 1" xmlns="http://www.w3.org/2000/svg" xmlns:xlink="http://www.w3.org/1999/xlink" viewBox="0 0 419.33 1397.26"><defs><style>.cls-1,.cls-10,.cls-2,.cls-4,.cls-5,.cls-6,.cls-9{fill:none;}.cls-2{stroke:#85b7de;}.cls-10,.cls-2,.cls-4,.cls-5,.cls-6,.cls-9{stroke-miterlimit:10;}.cls-2,.cls-4{stroke-width:6px;}.cls-3{fill:#85b7de;}.cls-10,.cls-4,.cls-5,.cls-6,.cls-9{stroke:#86b8df;}.cls-4{stroke-linecap:round;}.cls-5,.cls-6{stroke-width:3px;}.cls-6{stroke-dasharray:15.95 15.95;}.cls-7{fill:#86b8df;}.cls-8{clip-path:url(#clip-path);}.cls-10,.cls-9{stroke-width:2.22px;}.cls-10{stroke-dasharray:1.66 7.75;}</style><clipPath id="clip-path" transform="translate(0 76.51)"><path class="cls-1" d="M181.49,92.21c-63.31-12.72-26.83,120.43-18.09,148.66,2.92,9.42,20.91,51,38.11,20.23,8.48-18.63,22.23-61.51,21.18-88.4C221.5,138.75,223.38,100.7,181.49,92.21Z"/></clipPath></defs><path class="cls-2" d="M370.44,315.94c-28.9,49.4-92.29,164.06-79.75,265.76,21.65,175.75,28.48,317.87,28.48,317.87-3.72,53.37-18.44,103.82-43,151.12-16.11,31.07-19.77,62.72-13.43,96.82S274,1216,278.15,1250.41c1.64,13.58.79,27.8-1.14,41.41-3,20.91-14.35,28.33-35.1,25.26-44-6.5-77.64-44.66-78.53-89.2a111.57,111.57,0,0,1,.62-18c3.49-24.3-2.86-45.85-17.55-65.12-12.07-15.83-24.11-31.69-36.68-47.11a209.5,209.5,0,0,1-44.2-96C59.09,966.46,48.89,932.49,33.74,900,16.52,863,10.49,823.23,5,783.23c-5-36.45.11-71.79,7.06-107.37A1165.41,1165.41,0,0,1,70.52,473.54C97,406,108.58,335.49,109.33,262.82c-2-23-4.41-46-5.93-69-1.9-29,3.14-57.2,10.87-84.95,6.13-22,15.33-42.61,29.54-60.77C170.27,14.26,205.52-.3,247.51,3.62c50.71,4.74,123,22.74,150.9,75.54C451.25,179.1,370.44,315.94,370.44,315.94Z" transform="translate(0 76.51)"/><path class="cls-3" d="M264,140.46V86.23a2.27,2.27,0,0,1,3.27-2l51.44,25a2.27,2.27,0,0,1,.12,4l-51.43,29.19A2.28,2.28,0,0,1,264,140.46Z" transform="translate(0 76.51)"/><line class="cls-4" x1="266.01" y1="163.45" x2="266.01" y2="291.93"/><line class="cls-5" x1="228.83" y1="376.46" x2="227.05" y2="384.27"/><polyline class="cls-6" points="223.52 399.82 179.22 594.86 218.93 1246.84"/><line class="cls-5" x1="219.41" y1="1254.8" x2="219.9" y2="1262.79"/><rect class="cls-7" x="218.64" y="1232.69" width="15.91" height="27.74" rx="3.08" transform="matrix(0.99, -0.15, 0.15, 0.99, -190.47, 126.69)"/><g class="cls-8"><line class="cls-9" x1="76.64" y1="423.63" x2="76.64" y2="422.79"/><line class="cls-10" x1="76.64" y1="415.04" x2="76.64" y2="4.71"/><line class="cls-9" x1="76.64" y1="0.83" x2="76.64"/><line class="cls-9" x1="82.33" y1="423.63" x2="82.33" y2="422.79"/><line class="cls-10" x1="82.33" y1="415.04" x2="82.33" y2="4.71"/><line class="cls-9" x1="82.33" y1="0.83" x2="82.33"/><line class="cls-9" x1="88.02" y1="423.63" x2="88.02" y2="422.79"/><line class="cls-10" x1="88.02" y1="415.04" x2="88.02" y2="4.71"/><line class="cls-9" x1="88.02" y1="0.83" x2="88.02"/><line class="cls-9" x1="93.71" y1="423.63" x2="93.71" y2="422.79"/><line class="cls-10" x1="93.71" y1="415.04" x2="93.71" y2="4.71"/><line class="cls-9" x1="93.71" y1="0.83" x2="93.71"/><line class="cls-9" x1="99.4" y1="423.63" x2="99.4" y2="422.79"/><line class="cls-10" x1="99.4" y1="415.04" x2="99.4" y2="4.71"/><line class="cls-9" x1="99.4" y1="0.83" x2="99.4"/><line class="cls-9" x1="105.09" y1="423.63" x2="105.09" y2="422.79"/><line class="cls-10" x1="105.09" y1="415.04" x2="105.09" y2="4.71"/><line class="cls-9" x1="105.09" y1="0.83" x2="105.09"/><line class="cls-9" x1="110.78" y1="423.63" x2="110.78" y2="422.79"/><line class="cls-10" x1="110.78" y1="415.04" x2="110.78" y2="4.71"/><line class="cls-9" x1="110.78" y1="0.83" x2="110.78"/><line class="cls-9" x1="116.47" y1="423.63" x2="116.47" y2="422.79"/><line class="cls-10" x1="116.47" y1="415.04" x2="116.47" y2="4.71"/><line class="cls-9" x1="116.47" y1="0.83" x2="116.47"/><line class="cls-9" x1="122.15" y1="423.63" x2="122.15" y2="422.79"/><line class="cls-10" x1="122.15" y1="415.04" x2="122.15" y2="4.71"/><line class="cls-9" x1="122.15" y1="0.83" x2="122.15"/><line class="cls-9" x1="127.84" y1="423.63" x2="127.84" y2="422.79"/><line class="cls-10" x1="127.84" y1="415.04" x2="127.84" y2="4.71"/><line class="cls-9" x1="127.84" y1="0.83" x2="127.84"/><line class="cls-9" x1="133.53" y1="423.63" x2="133.53" y2="422.79"/><line class="cls-10" x1="133.53" y1="415.04" x2="133.53" y2="4.71"/><line class="cls-9" x1="133.53" y1="0.83" x2="133.53"/><line class="cls-9" x1="139.22" y1="423.63" x2="139.22" y2="422.79"/><line class="cls-10" x1="139.22" y1="415.04" x2="139.22" y2="4.71"/><line class="cls-9" x1="139.22" y1="0.83" x2="139.22"/><line class="cls-9" x1="144.91" y1="423.63" x2="144.91" y2="422.79"/><line class="cls-10" x1="144.91" y1="415.04" x2="144.91" y2="4.71"/><line class="cls-9" x1="144.91" y1="0.83" x2="144.91"/><line class="cls-9" x1="150.6" y1="423.63" x2="150.6" y2="422.79"/><line class="cls-10" x1="150.6" y1="415.04" x2="150.6" y2="4.71"/><line class="cls-9" x1="150.6" y1="0.83" x2="150.6"/><line class="cls-9" x1="156.29" y1="423.63" x2="156.29" y2="422.79"/><line class="cls-10" x1="156.29" y1="415.04" x2="156.29" y2="4.71"/><line class="cls-9" x1="156.29" y1="0.83" x2="156.29"/><line class="cls-9" x1="161.98" y1="423.63" x2="161.98" y2="422.79"/><line class="cls-10" x1="161.98" y1="415.04" x2="161.98" y2="4.71"/><line class="cls-9" x1="161.98" y1="0.83" x2="161.98"/><line class="cls-9" x1="167.67" y1="423.63" x2="167.67" y2="422.79"/><line class="cls-10" x1="167.67" y1="415.04" x2="167.67" y2="4.71"/><line class="cls-9" x1="167.67" y1="0.83" x2="167.67"/><line class="cls-9" x1="173.36" y1="423.63" x2="173.36" y2="422.79"/><line class="cls-10" x1="173.36" y1="415.04" x2="173.36" y2="4.71"/><line class="cls-9" x1="173.36" y1="0.83" x2="173.36"/><line class="cls-9" x1="179.05" y1="423.63" x2="179.05" y2="422.79"/><line class="cls-10" x1="179.05" y1="415.04" x2="179.05" y2="4.71"/><line class="cls-9" x1="179.05" y1="0.83" x2="179.05"/><line class="cls-9" x1="184.74" y1="423.63" x2="184.74" y2="422.79"/><line class="cls-10" x1="184.74" y1="415.04" x2="184.74" y2="4.71"/><line class="cls-9" x1="184.74" y1="0.83" x2="184.74"/><line class="cls-9" x1="190.43" y1="423.63" x2="190.43" y2="422.79"/><line class="cls-10" x1="190.43" y1="415.04" x2="190.43" y2="4.71"/><line class="cls-9" x1="190.43" y1="0.83" x2="190.43"/><line class="cls-9" x1="196.12" y1="423.63" x2="196.12" y2="422.79"/><line class="cls-10" x1="196.12" y1="415.04" x2="196.12" y2="4.71"/><line class="cls-9" x1="196.12" y1="0.83" x2="196.12"/><line class="cls-9" x1="201.81" y1="423.63" x2="201.81" y2="422.79"/><line class="cls-10" x1="201.81" y1="415.04" x2="201.81" y2="4.71"/><line class="cls-9" x1="201.81" y1="0.83" x2="201.81"/><line class="cls-9" x1="207.5" y1="423.63" x2="207.5" y2="422.79"/><line class="cls-10" x1="207.5" y1="415.04" x2="207.5" y2="4.71"/><line class="cls-9" x1="207.5" y1="0.83" x2="207.5"/><line class="cls-9" x1="213.19" y1="423.63" x2="213.19" y2="422.79"/><line class="cls-10" x1="213.19" y1="415.04" x2="213.19" y2="4.71"/><line class="cls-9" x1="213.19" y1="0.83" x2="213.19"/><line class="cls-9" x1="218.88" y1="423.63" x2="218.88" y2="422.79"/><line class="cls-10" x1="218.88" y1="415.04" x2="218.88" y2="4.71"/><line class="cls-9" x1="218.88" y1="0.83" x2="218.88"/><line class="cls-9" x1="224.57" y1="423.63" x2="224.57" y2="422.79"/><line class="cls-10" x1="224.57" y1="415.04" x2="224.57" y2="4.71"/><line class="cls-9" x1="224.57" y1="0.83" x2="224.57"/><line class="cls-9" x1="230.26" y1="423.63" x2="230.26" y2="422.79"/><line class="cls-10" x1="230.26" y1="415.04" x2="230.26" y2="4.71"/><line class="cls-9" x1="230.26" y1="0.83" x2="230.26"/><line class="cls-9" x1="235.95" y1="423.63" x2="235.95" y2="422.79"/><line class="cls-10" x1="235.95" y1="415.04" x2="235.95" y2="4.71"/><line class="cls-9" x1="235.95" y1="0.83" x2="235.95"/><line class="cls-9" x1="241.64" y1="423.63" x2="241.64" y2="422.79"/><line class="cls-10" x1="241.64" y1="415.04" x2="241.64" y2="4.71"/><line class="cls-9" x1="241.64" y1="0.83" x2="241.64"/><line class="cls-9" x1="247.33" y1="423.63" x2="247.33" y2="422.79"/><line class="cls-10" x1="247.33" y1="415.04" x2="247.33" y2="4.71"/><line class="cls-9" x1="247.33" y1="0.83" x2="247.33"/><line class="cls-9" x1="253.02" y1="423.63" x2="253.02" y2="422.79"/><line class="cls-10" x1="253.02" y1="415.04" x2="253.02" y2="4.71"/><line class="cls-9" x1="253.02" y1="0.83" x2="253.02"/><line class="cls-9" x1="258.71" y1="423.63" x2="258.71" y2="422.79"/><line class="cls-10" x1="258.71" y1="415.04" x2="258.71" y2="4.71"/><line class="cls-9" x1="258.71" y1="0.83" x2="258.71"/><line class="cls-9" x1="264.4" y1="423.63" x2="264.4" y2="422.79"/><line class="cls-10" x1="264.4" y1="415.04" x2="264.4" y2="4.71"/><line class="cls-9" x1="264.4" y1="0.83" x2="264.4"/><line class="cls-9" x1="270.09" y1="423.63" x2="270.09" y2="422.79"/><line class="cls-10" x1="270.09" y1="415.04" x2="270.09" y2="4.71"/><line class="cls-9" x1="270.09" y1="0.83" x2="270.09"/><line class="cls-9" x1="275.78" y1="423.63" x2="275.78" y2="422.79"/><line class="cls-10" x1="275.78" y1="415.04" x2="275.78" y2="4.71"/><line class="cls-9" x1="275.78" y1="0.83" x2="275.78"/><line class="cls-9" x1="281.47" y1="423.63" x2="281.47" y2="422.79"/><line class="cls-10" x1="281.47" y1="415.04" x2="281.47" y2="4.71"/><line class="cls-9" x1="281.47" y1="0.83" x2="281.47"/><line class="cls-9" x1="287.16" y1="423.63" x2="287.16" y2="422.79"/><line class="cls-10" x1="287.16" y1="415.04" x2="287.16" y2="4.71"/><line class="cls-9" x1="287.16" y1="0.83" x2="287.16"/><line class="cls-9" x1="292.85" y1="423.63" x2="292.85" y2="422.79"/><line class="cls-10" x1="292.85" y1="415.04" x2="292.85" y2="4.71"/><line class="cls-9" x1="292.85" y1="0.83" x2="292.85"/><line class="cls-9" x1="298.54" y1="423.63" x2="298.54" y2="422.79"/><line class="cls-10" x1="298.54" y1="415.04" x2="298.54" y2="4.71"/><line class="cls-9" x1="298.54" y1="0.83" x2="298.54"/><line class="cls-9" x1="304.23" y1="423.63" x2="304.23" y2="422.79"/><line class="cls-10" x1="304.23" y1="415.04" x2="304.23" y2="4.71"/><line class="cls-9" x1="304.23" y1="0.83" x2="304.23"/><line class="cls-9" x1="309.92" y1="423.63" x2="309.92" y2="422.79"/><line class="cls-10" x1="309.92" y1="415.04" x2="309.92" y2="4.71"/><line class="cls-9" x1="309.92" y1="0.83" x2="309.92"/><line class="cls-9" x1="315.61" y1="423.63" x2="315.61" y2="422.79"/><line class="cls-10" x1="315.61" y1="415.04" x2="315.61" y2="4.71"/><line class="cls-9" x1="315.61" y1="0.83" x2="315.61"/><line class="cls-9" x1="321.3" y1="423.63" x2="321.3" y2="422.79"/><line class="cls-10" x1="321.3" y1="415.04" x2="321.3" y2="4.71"/><line class="cls-9" x1="321.3" y1="0.83" x2="321.3"/></g></svg>