<svg id="Ebene_1" data-name="Ebene 1" xmlns="http://www.w3.org/2000/svg" xmlns:xlink="http://www.w3.org/1999/xlink" viewBox="0 0 489.12 1279.8"><defs><style>.cls-1,.cls-10,.cls-2,.cls-4,.cls-6,.cls-7,.cls-9{fill:none;}.cls-2{stroke:#85b7de;stroke-width:7px;}.cls-10,.cls-2,.cls-4,.cls-6,.cls-7,.cls-9{stroke-miterlimit:10;}.cls-3{fill:#85b7de;}.cls-10,.cls-4,.cls-6,.cls-7,.cls-9{stroke:#86b8df;}.cls-4{stroke-linecap:round;stroke-width:6px;}.cls-5{fill:#86b8df;}.cls-6,.cls-7{stroke-width:3px;}.cls-7{stroke-dasharray:16.1 16.1;}.cls-8{clip-path:url(#clip-path);}.cls-10,.cls-9{stroke-width:2.22px;}.cls-10{stroke-dasharray:1.66 7.75;}.cls-11{clip-path:url(#clip-path-2);}.cls-12{clip-path:url(#clip-path-3);}</style><clipPath id="clip-path" transform="translate(38.54 112.3)"><path class="cls-1" d="M111.65,75.74c4.55-2.22,8.35-3.86,11.94-5.87,5.31-3,10.79-6.35,10.07-13.49-.77-7.49-5-13-12.48-14.91s-15.3-3-22.93-4.61c-16.7-3.53-30.88,2.47-43.83,12-3,2.2-5.76,6.44-6.19,10a22,22,0,0,0,25,24.26C86.42,81.38,99.39,78.17,111.65,75.74Z"/></clipPath><clipPath id="clip-path-2" transform="translate(38.54 112.3)"><path class="cls-1" d="M35.36,161.71c.78,11.78,2.76,23.16,14.18,29.72,15.63,9,30.67,18.63,43.22,31.87,4.88,5.15,9.91,4.08,13.31-2.13,3.9-7.13,6.29-21.24-2-29.8-13.43-13.89-26.5-28.14-39.85-42.12-5.67-5.93-12.86-7.23-20.37-4.67C35.75,147.35,35.13,154.42,35.36,161.71Z"/></clipPath><clipPath id="clip-path-3" transform="translate(38.54 112.3)"><path class="cls-1" d="M280.43,512V525.6c0,12.18,1.85,23.93,7.74,34.81,4.59,8.48,12.68,13.83,19.76,12.88,6.77-.91,11.55-7.07,13.48-17.43.25-1.36.34-2.76.52-4.13,5.14-38.87,0-77.58-2-116.33a13.29,13.29,0,0,0-5-9c-9-6.11-18.79-7.35-28.88-2.3-9.83,4.91-16.69,11.87-15.63,23.81.48,5.47.57,11.33,2.65,16.24C279.75,479.91,281.27,496.28,280.43,512Z"/></clipPath></defs><path class="cls-2" d="M163.87,528.37c3.15-21.1,3.11-42.8-4.73-62.69-13.67-34.68-17.07-70.8-20.5-107.23-1.82-19.29-4.25-38.71-8.64-57.54-10.86-46.6-41.56-77-86.29-89.08-32.24-8.68-41.92-31.08-40-57.21,1.57-21.15,5.18-42.23,9.09-63.11C15.7,76.12,19.22,60.6,24.74,46,36.52,14.86,61.7.58,94.86,4c32.43,3.34,60.23,17,85,37.55,12.81,10.63,21.45,24.37,27.2,39.68,12,32,23.5,64.26,35,96.49,13.34,37.46,26.28,75.06,39.67,112.5,16.5,46.1,33.38,92.07,49.91,138.16C347.25,472,349.11,517.19,345,562.67s-9.51,91.11-14.85,136.59a116,116,0,0,1-16.44,48.16c-16.59,26.88-28.86,55.3-34.58,87.07-3.27,18.14-13.72,35.08-21.55,52.28S241.34,921,232.81,937.84c-3.95,7.82-8.51,15.37-13.22,22.77-10.27,16.08-19.24,32.67-22.87,51.69a25.57,25.57,0,0,1-2.71,7.85c-13.66,23.55-26.21,47.77-45,68-8.42,9.08-15.45,19.48-22.87,29.45-8,10.75-15.29,22-23.67,32.47A36.42,36.42,0,0,1,74.74,1164c-13.58.6-21.74-5.68-21.79-19.22a141.33,141.33,0,0,1,4.12-34.27c5.83-23.31,12.75-46.35,19.69-69.37,4.15-13.79,8.3-27.42,7.28-42.11-.77-11.19,3.2-20.86,10.82-29.08,2.51-2.72,4.61-5.82,7.17-8.48,10.31-10.69,14.68-22.86,12.12-38-1.45-8.53-.26-17.5-.26-27.58Z" transform="translate(38.54 112.3)"/><path class="cls-3" d="M110.27,92.72V38.49a2.27,2.27,0,0,1,3.26-2.05L165,61.49a2.27,2.27,0,0,1,.13,4L113.66,94.7A2.27,2.27,0,0,1,110.27,92.72Z" transform="translate(38.54 112.3)"/><line class="cls-4" x1="150.83" y1="151.5" x2="150.83" y2="255.98"/><rect class="cls-5" x="83.71" y="1091.46" width="15.91" height="27.74" rx="3.08" transform="translate(406.02 143.35) rotate(19.14)"/><line class="cls-6" x1="197.74" y1="283.87" x2="199.49" y2="291.67"/><polyline class="cls-7" points="203.03 307.38 273.64 620.98 160.43 1148.72"/><line class="cls-6" x1="158.74" y1="1156.59" x2="157.06" y2="1164.41"/><g class="cls-8"><line class="cls-9" x1="1.11" y1="423.63" x2="1.11" y2="422.79"/><line class="cls-10" x1="1.11" y1="415.04" x2="1.11" y2="4.71"/><line class="cls-9" x1="1.11" y1="0.83" x2="1.11"/><line class="cls-9" x1="6.8" y1="423.63" x2="6.8" y2="422.79"/><line class="cls-10" x1="6.8" y1="415.04" x2="6.8" y2="4.71"/><line class="cls-9" x1="6.8" y1="0.83" x2="6.8"/><line class="cls-9" x1="12.49" y1="423.63" x2="12.49" y2="422.79"/><line class="cls-10" x1="12.49" y1="415.04" x2="12.49" y2="4.71"/><line class="cls-9" x1="12.49" y1="0.83" x2="12.49"/><line class="cls-9" x1="18.18" y1="423.63" x2="18.18" y2="422.79"/><line class="cls-10" x1="18.18" y1="415.04" x2="18.18" y2="4.71"/><line class="cls-9" x1="18.18" y1="0.83" x2="18.18"/><line class="cls-9" x1="23.87" y1="423.63" x2="23.87" y2="422.79"/><line class="cls-10" x1="23.87" y1="415.04" x2="23.87" y2="4.71"/><line class="cls-9" x1="23.87" y1="0.83" x2="23.87"/><line class="cls-9" x1="29.56" y1="423.63" x2="29.56" y2="422.79"/><line class="cls-10" x1="29.56" y1="415.04" x2="29.56" y2="4.71"/><line class="cls-9" x1="29.56" y1="0.83" x2="29.56"/><line class="cls-9" x1="35.25" y1="423.63" x2="35.25" y2="422.79"/><line class="cls-10" x1="35.25" y1="415.04" x2="35.25" y2="4.71"/><line class="cls-9" x1="35.25" y1="0.83" x2="35.25"/><line class="cls-9" x1="40.94" y1="423.63" x2="40.94" y2="422.79"/><line class="cls-10" x1="40.94" y1="415.04" x2="40.94" y2="4.71"/><line class="cls-9" x1="40.94" y1="0.83" x2="40.94"/><line class="cls-9" x1="46.63" y1="423.63" x2="46.63" y2="422.79"/><line class="cls-10" x1="46.63" y1="415.04" x2="46.63" y2="4.71"/><line class="cls-9" x1="46.63" y1="0.83" x2="46.63"/><line class="cls-9" x1="52.32" y1="423.63" x2="52.32" y2="422.79"/><line class="cls-10" x1="52.32" y1="415.04" x2="52.32" y2="4.71"/><line class="cls-9" x1="52.32" y1="0.83" x2="52.32"/><line class="cls-9" x1="58.01" y1="423.63" x2="58.01" y2="422.79"/><line class="cls-10" x1="58.01" y1="415.04" x2="58.01" y2="4.71"/><line class="cls-9" x1="58.01" y1="0.83" x2="58.01"/><line class="cls-9" x1="63.7" y1="423.63" x2="63.7" y2="422.79"/><line class="cls-10" x1="63.7" y1="415.04" x2="63.7" y2="4.71"/><line class="cls-9" x1="63.7" y1="0.83" x2="63.7"/><line class="cls-9" x1="69.39" y1="423.63" x2="69.39" y2="422.79"/><line class="cls-10" x1="69.39" y1="415.04" x2="69.39" y2="4.71"/><line class="cls-9" x1="69.39" y1="0.83" x2="69.39"/><line class="cls-9" x1="75.08" y1="423.63" x2="75.08" y2="422.79"/><line class="cls-10" x1="75.08" y1="415.04" x2="75.08" y2="4.71"/><line class="cls-9" x1="75.08" y1="0.83" x2="75.08"/><line class="cls-9" x1="80.77" y1="423.63" x2="80.77" y2="422.79"/><line class="cls-10" x1="80.77" y1="415.04" x2="80.77" y2="4.71"/><line class="cls-9" x1="80.77" y1="0.83" x2="80.77"/><line class="cls-9" x1="86.46" y1="423.63" x2="86.46" y2="422.79"/><line class="cls-10" x1="86.46" y1="415.04" x2="86.46" y2="4.71"/><line class="cls-9" x1="86.46" y1="0.83" x2="86.46"/><line class="cls-9" x1="92.15" y1="423.63" x2="92.15" y2="422.79"/><line class="cls-10" x1="92.15" y1="415.04" x2="92.15" y2="4.71"/><line class="cls-9" x1="92.15" y1="0.83" x2="92.15"/><line class="cls-9" x1="97.84" y1="423.63" x2="97.84" y2="422.79"/><line class="cls-10" x1="97.84" y1="415.04" x2="97.84" y2="4.71"/><line class="cls-9" x1="97.84" y1="0.83" x2="97.84"/><line class="cls-9" x1="103.53" y1="423.63" x2="103.53" y2="422.79"/><line class="cls-10" x1="103.53" y1="415.04" x2="103.53" y2="4.71"/><line class="cls-9" x1="103.53" y1="0.83" x2="103.53"/><line class="cls-9" x1="109.22" y1="423.63" x2="109.22" y2="422.79"/><line class="cls-10" x1="109.22" y1="415.04" x2="109.22" y2="4.71"/><line class="cls-9" x1="109.22" y1="0.83" x2="109.22"/><line class="cls-9" x1="114.91" y1="423.63" x2="114.91" y2="422.79"/><line class="cls-10" x1="114.91" y1="415.04" x2="114.91" y2="4.71"/><line class="cls-9" x1="114.91" y1="0.83" x2="114.91"/><line class="cls-9" x1="120.6" y1="423.63" x2="120.6" y2="422.79"/><line class="cls-10" x1="120.6" y1="415.04" x2="120.6" y2="4.71"/><line class="cls-9" x1="120.6" y1="0.83" x2="120.6"/><line class="cls-9" x1="126.29" y1="423.63" x2="126.29" y2="422.79"/><line class="cls-10" x1="126.29" y1="415.04" x2="126.29" y2="4.71"/><line class="cls-9" x1="126.29" y1="0.83" x2="126.29"/><line class="cls-9" x1="131.98" y1="423.63" x2="131.98" y2="422.79"/><line class="cls-10" x1="131.98" y1="415.04" x2="131.98" y2="4.71"/><line class="cls-9" x1="131.98" y1="0.83" x2="131.98"/><line class="cls-9" x1="137.67" y1="423.63" x2="137.67" y2="422.79"/><line class="cls-10" x1="137.67" y1="415.04" x2="137.67" y2="4.71"/><line class="cls-9" x1="137.67" y1="0.83" x2="137.67"/><line class="cls-9" x1="143.36" y1="423.63" x2="143.36" y2="422.79"/><line class="cls-10" x1="143.36" y1="415.04" x2="143.36" y2="4.71"/><line class="cls-9" x1="143.36" y1="0.83" x2="143.36"/><line class="cls-9" x1="149.05" y1="423.63" x2="149.05" y2="422.79"/><line class="cls-10" x1="149.05" y1="415.04" x2="149.05" y2="4.71"/><line class="cls-9" x1="149.05" y1="0.83" x2="149.05"/><line class="cls-9" x1="154.74" y1="423.63" x2="154.74" y2="422.79"/><line class="cls-10" x1="154.74" y1="415.04" x2="154.74" y2="4.71"/><line class="cls-9" x1="154.74" y1="0.83" x2="154.74"/><line class="cls-9" x1="160.43" y1="423.63" x2="160.43" y2="422.79"/><line class="cls-10" x1="160.43" y1="415.04" x2="160.43" y2="4.71"/><line class="cls-9" x1="160.43" y1="0.83" x2="160.43"/><line class="cls-9" x1="166.12" y1="423.63" x2="166.12" y2="422.79"/><line class="cls-10" x1="166.12" y1="415.04" x2="166.12" y2="4.71"/><line class="cls-9" x1="166.12" y1="0.83" x2="166.12"/><line class="cls-9" x1="171.8" y1="423.63" x2="171.8" y2="422.79"/><line class="cls-10" x1="171.8" y1="415.04" x2="171.8" y2="4.71"/><line class="cls-9" x1="171.8" y1="0.83" x2="171.8"/><line class="cls-9" x1="177.49" y1="423.63" x2="177.49" y2="422.79"/><line class="cls-10" x1="177.49" y1="415.04" x2="177.49" y2="4.71"/><line class="cls-9" x1="177.49" y1="0.83" x2="177.49"/><line class="cls-9" x1="183.18" y1="423.63" x2="183.18" y2="422.79"/><line class="cls-10" x1="183.18" y1="415.04" x2="183.18" y2="4.71"/><line class="cls-9" x1="183.18" y1="0.83" x2="183.18"/><line class="cls-9" x1="188.87" y1="423.63" x2="188.87" y2="422.79"/><line class="cls-10" x1="188.87" y1="415.04" x2="188.87" y2="4.71"/><line class="cls-9" x1="188.87" y1="0.83" x2="188.87"/><line class="cls-9" x1="194.56" y1="423.63" x2="194.56" y2="422.79"/><line class="cls-10" x1="194.56" y1="415.04" x2="194.56" y2="4.71"/><line class="cls-9" x1="194.56" y1="0.83" x2="194.56"/><line class="cls-9" x1="200.25" y1="423.63" x2="200.25" y2="422.79"/><line class="cls-10" x1="200.25" y1="415.04" x2="200.25" y2="4.71"/><line class="cls-9" x1="200.25" y1="0.83" x2="200.25"/><line class="cls-9" x1="205.94" y1="423.63" x2="205.94" y2="422.79"/><line class="cls-10" x1="205.94" y1="415.04" x2="205.94" y2="4.71"/><line class="cls-9" x1="205.94" y1="0.83" x2="205.94"/><line class="cls-9" x1="211.63" y1="423.63" x2="211.63" y2="422.79"/><line class="cls-10" x1="211.63" y1="415.04" x2="211.63" y2="4.71"/><line class="cls-9" x1="211.63" y1="0.83" x2="211.63"/><line class="cls-9" x1="217.32" y1="423.63" x2="217.32" y2="422.79"/><line class="cls-10" x1="217.32" y1="415.04" x2="217.32" y2="4.71"/><line class="cls-9" x1="217.32" y1="0.83" x2="217.32"/><line class="cls-9" x1="223.01" y1="423.63" x2="223.01" y2="422.79"/><line class="cls-10" x1="223.01" y1="415.04" x2="223.01" y2="4.71"/><line class="cls-9" x1="223.01" y1="0.83" x2="223.01"/><line class="cls-9" x1="228.7" y1="423.63" x2="228.7" y2="422.79"/><line class="cls-10" x1="228.7" y1="415.04" x2="228.7" y2="4.71"/><line class="cls-9" x1="228.7" y1="0.83" x2="228.7"/><line class="cls-9" x1="234.39" y1="423.63" x2="234.39" y2="422.79"/><line class="cls-10" x1="234.39" y1="415.04" x2="234.39" y2="4.71"/><line class="cls-9" x1="234.39" y1="0.83" x2="234.39"/><line class="cls-9" x1="240.08" y1="423.63" x2="240.08" y2="422.79"/><line class="cls-10" x1="240.08" y1="415.04" x2="240.08" y2="4.71"/><line class="cls-9" x1="240.08" y1="0.83" x2="240.08"/><line class="cls-9" x1="245.77" y1="423.63" x2="245.77" y2="422.79"/><line class="cls-10" x1="245.77" y1="415.04" x2="245.77" y2="4.71"/><line class="cls-9" x1="245.77" y1="0.83" x2="245.77"/></g><g class="cls-11"><line class="cls-9" x1="34.6" y1="467.16" x2="34.6" y2="466.33"/><line class="cls-10" x1="34.6" y1="458.58" x2="34.6" y2="48.25"/><line class="cls-9" x1="34.6" y1="44.37" x2="34.6" y2="43.53"/><line class="cls-9" x1="40.29" y1="467.16" x2="40.29" y2="466.33"/><line class="cls-10" x1="40.29" y1="458.58" x2="40.29" y2="48.25"/><line class="cls-9" x1="40.29" y1="44.37" x2="40.29" y2="43.53"/><line class="cls-9" x1="45.98" y1="467.16" x2="45.98" y2="466.33"/><line class="cls-10" x1="45.98" y1="458.58" x2="45.98" y2="48.25"/><line class="cls-9" x1="45.98" y1="44.37" x2="45.98" y2="43.53"/><line class="cls-9" x1="51.67" y1="467.16" x2="51.67" y2="466.33"/><line class="cls-10" x1="51.67" y1="458.58" x2="51.67" y2="48.25"/><line class="cls-9" x1="51.67" y1="44.37" x2="51.67" y2="43.53"/><line class="cls-9" x1="57.36" y1="467.16" x2="57.36" y2="466.33"/><line class="cls-10" x1="57.36" y1="458.58" x2="57.36" y2="48.25"/><line class="cls-9" x1="57.36" y1="44.37" x2="57.36" y2="43.53"/><line class="cls-9" x1="63.05" y1="467.16" x2="63.05" y2="466.33"/><line class="cls-10" x1="63.05" y1="458.58" x2="63.05" y2="48.25"/><line class="cls-9" x1="63.05" y1="44.37" x2="63.05" y2="43.53"/><line class="cls-9" x1="68.74" y1="467.16" x2="68.74" y2="466.33"/><line class="cls-10" x1="68.74" y1="458.58" x2="68.74" y2="48.25"/><line class="cls-9" x1="68.74" y1="44.37" x2="68.74" y2="43.53"/><line class="cls-9" x1="74.43" y1="467.16" x2="74.43" y2="466.33"/><line class="cls-10" x1="74.43" y1="458.58" x2="74.43" y2="48.25"/><line class="cls-9" x1="74.43" y1="44.37" x2="74.43" y2="43.53"/><line class="cls-9" x1="80.12" y1="467.16" x2="80.12" y2="466.33"/><line class="cls-10" x1="80.12" y1="458.58" x2="80.12" y2="48.25"/><line class="cls-9" x1="80.12" y1="44.37" x2="80.12" y2="43.53"/><line class="cls-9" x1="85.81" y1="467.16" x2="85.81" y2="466.33"/><line class="cls-10" x1="85.81" y1="458.58" x2="85.81" y2="48.25"/><line class="cls-9" x1="85.81" y1="44.37" x2="85.81" y2="43.53"/><line class="cls-9" x1="91.5" y1="467.16" x2="91.5" y2="466.33"/><line class="cls-10" x1="91.5" y1="458.58" x2="91.5" y2="48.25"/><line class="cls-9" x1="91.5" y1="44.37" x2="91.5" y2="43.53"/><line class="cls-9" x1="97.19" y1="467.16" x2="97.19" y2="466.33"/><line class="cls-10" x1="97.19" y1="458.58" x2="97.19" y2="48.25"/><line class="cls-9" x1="97.19" y1="44.37" x2="97.19" y2="43.53"/><line class="cls-9" x1="102.88" y1="467.16" x2="102.88" y2="466.33"/><line class="cls-10" x1="102.88" y1="458.58" x2="102.88" y2="48.25"/><line class="cls-9" x1="102.88" y1="44.37" x2="102.88" y2="43.53"/><line class="cls-9" x1="108.57" y1="467.16" x2="108.57" y2="466.33"/><line class="cls-10" x1="108.57" y1="458.58" x2="108.57" y2="48.25"/><line class="cls-9" x1="108.57" y1="44.37" x2="108.57" y2="43.53"/><line class="cls-9" x1="114.26" y1="467.16" x2="114.26" y2="466.33"/><line class="cls-10" x1="114.26" y1="458.58" x2="114.26" y2="48.25"/><line class="cls-9" x1="114.26" y1="44.37" x2="114.26" y2="43.53"/><line class="cls-9" x1="119.95" y1="467.16" x2="119.95" y2="466.33"/><line class="cls-10" x1="119.95" y1="458.58" x2="119.95" y2="48.25"/><line class="cls-9" x1="119.95" y1="44.37" x2="119.95" y2="43.53"/><line class="cls-9" x1="125.64" y1="467.16" x2="125.64" y2="466.33"/><line class="cls-10" x1="125.64" y1="458.58" x2="125.64" y2="48.25"/><line class="cls-9" x1="125.64" y1="44.37" x2="125.64" y2="43.53"/><line class="cls-9" x1="131.33" y1="467.16" x2="131.33" y2="466.33"/><line class="cls-10" x1="131.33" y1="458.58" x2="131.33" y2="48.25"/><line class="cls-9" x1="131.33" y1="44.37" x2="131.33" y2="43.53"/><line class="cls-9" x1="137.02" y1="467.16" x2="137.02" y2="466.33"/><line class="cls-10" x1="137.02" y1="458.58" x2="137.02" y2="48.25"/><line class="cls-9" x1="137.02" y1="44.37" x2="137.02" y2="43.53"/><line class="cls-9" x1="142.71" y1="467.16" x2="142.71" y2="466.33"/><line class="cls-10" x1="142.71" y1="458.58" x2="142.71" y2="48.25"/><line class="cls-9" x1="142.71" y1="44.37" x2="142.71" y2="43.53"/><line class="cls-9" x1="148.4" y1="467.16" x2="148.4" y2="466.33"/><line class="cls-10" x1="148.4" y1="458.58" x2="148.4" y2="48.25"/><line class="cls-9" x1="148.4" y1="44.37" x2="148.4" y2="43.53"/><line class="cls-9" x1="154.09" y1="467.16" x2="154.09" y2="466.33"/><line class="cls-10" x1="154.09" y1="458.58" x2="154.09" y2="48.25"/><line class="cls-9" x1="154.09" y1="44.37" x2="154.09" y2="43.53"/><line class="cls-9" x1="159.77" y1="467.16" x2="159.77" y2="466.33"/><line class="cls-10" x1="159.77" y1="458.58" x2="159.77" y2="48.25"/><line class="cls-9" x1="159.77" y1="44.37" x2="159.77" y2="43.53"/><line class="cls-9" x1="165.46" y1="467.16" x2="165.46" y2="466.33"/><line class="cls-10" x1="165.46" y1="458.58" x2="165.46" y2="48.25"/><line class="cls-9" x1="165.46" y1="44.37" x2="165.46" y2="43.53"/><line class="cls-9" x1="171.15" y1="467.16" x2="171.15" y2="466.33"/><line class="cls-10" x1="171.15" y1="458.58" x2="171.15" y2="48.25"/><line class="cls-9" x1="171.15" y1="44.37" x2="171.15" y2="43.53"/><line class="cls-9" x1="176.84" y1="467.16" x2="176.84" y2="466.33"/><line class="cls-10" x1="176.84" y1="458.58" x2="176.84" y2="48.25"/><line class="cls-9" x1="176.84" y1="44.37" x2="176.84" y2="43.53"/><line class="cls-9" x1="182.53" y1="467.16" x2="182.53" y2="466.33"/><line class="cls-10" x1="182.53" y1="458.58" x2="182.53" y2="48.25"/><line class="cls-9" x1="182.53" y1="44.37" x2="182.53" y2="43.53"/><line class="cls-9" x1="188.22" y1="467.16" x2="188.22" y2="466.33"/><line class="cls-10" x1="188.22" y1="458.58" x2="188.22" y2="48.25"/><line class="cls-9" x1="188.22" y1="44.37" x2="188.22" y2="43.53"/><line class="cls-9" x1="193.91" y1="467.16" x2="193.91" y2="466.33"/><line class="cls-10" x1="193.91" y1="458.58" x2="193.91" y2="48.25"/><line class="cls-9" x1="193.91" y1="44.37" x2="193.91" y2="43.53"/><line class="cls-9" x1="199.6" y1="467.16" x2="199.6" y2="466.33"/><line class="cls-10" x1="199.6" y1="458.58" x2="199.6" y2="48.25"/><line class="cls-9" x1="199.6" y1="44.37" x2="199.6" y2="43.53"/><line class="cls-9" x1="205.29" y1="467.16" x2="205.29" y2="466.33"/><line class="cls-10" x1="205.29" y1="458.58" x2="205.29" y2="48.25"/><line class="cls-9" x1="205.29" y1="44.37" x2="205.29" y2="43.53"/><line class="cls-9" x1="210.98" y1="467.16" x2="210.98" y2="466.33"/><line class="cls-10" x1="210.98" y1="458.58" x2="210.98" y2="48.25"/><line class="cls-9" x1="210.98" y1="44.37" x2="210.98" y2="43.53"/><line class="cls-9" x1="216.67" y1="467.16" x2="216.67" y2="466.33"/><line class="cls-10" x1="216.67" y1="458.58" x2="216.67" y2="48.25"/><line class="cls-9" x1="216.67" y1="44.37" x2="216.67" y2="43.53"/><line class="cls-9" x1="222.36" y1="467.16" x2="222.36" y2="466.33"/><line class="cls-10" x1="222.36" y1="458.58" x2="222.36" y2="48.25"/><line class="cls-9" x1="222.36" y1="44.37" x2="222.36" y2="43.53"/><line class="cls-9" x1="228.05" y1="467.16" x2="228.05" y2="466.33"/><line class="cls-10" x1="228.05" y1="458.58" x2="228.05" y2="48.25"/><line class="cls-9" x1="228.05" y1="44.37" x2="228.05" y2="43.53"/><line class="cls-9" x1="233.74" y1="467.16" x2="233.74" y2="466.33"/><line class="cls-10" x1="233.74" y1="458.58" x2="233.74" y2="48.25"/><line class="cls-9" x1="233.74" y1="44.37" x2="233.74" y2="43.53"/><line class="cls-9" x1="239.43" y1="467.16" x2="239.43" y2="466.33"/><line class="cls-10" x1="239.43" y1="458.58" x2="239.43" y2="48.25"/><line class="cls-9" x1="239.43" y1="44.37" x2="239.43" y2="43.53"/><line class="cls-9" x1="245.12" y1="467.16" x2="245.12" y2="466.33"/><line class="cls-10" x1="245.12" y1="458.58" x2="245.12" y2="48.25"/><line class="cls-9" x1="245.12" y1="44.37" x2="245.12" y2="43.53"/><line class="cls-9" x1="250.81" y1="467.16" x2="250.81" y2="466.33"/><line class="cls-10" x1="250.81" y1="458.58" x2="250.81" y2="48.25"/><line class="cls-9" x1="250.81" y1="44.37" x2="250.81" y2="43.53"/><line class="cls-9" x1="256.5" y1="467.16" x2="256.5" y2="466.33"/><line class="cls-10" x1="256.5" y1="458.58" x2="256.5" y2="48.25"/><line class="cls-9" x1="256.5" y1="44.37" x2="256.5" y2="43.53"/><line class="cls-9" x1="262.19" y1="467.16" x2="262.19" y2="466.33"/><line class="cls-10" x1="262.19" y1="458.58" x2="262.19" y2="48.25"/><line class="cls-9" x1="262.19" y1="44.37" x2="262.19" y2="43.53"/><line class="cls-9" x1="267.88" y1="467.16" x2="267.88" y2="466.33"/><line class="cls-10" x1="267.88" y1="458.58" x2="267.88" y2="48.25"/><line class="cls-9" x1="267.88" y1="44.37" x2="267.88" y2="43.53"/><line class="cls-9" x1="273.57" y1="467.16" x2="273.57" y2="466.33"/><line class="cls-10" x1="273.57" y1="458.58" x2="273.57" y2="48.25"/><line class="cls-9" x1="273.57" y1="44.37" x2="273.57" y2="43.53"/><line class="cls-9" x1="279.26" y1="467.16" x2="279.26" y2="466.33"/><line class="cls-10" x1="279.26" y1="458.58" x2="279.26" y2="48.25"/><line class="cls-9" x1="279.26" y1="44.37" x2="279.26" y2="43.53"/></g><g class="cls-12"><line class="cls-9" x1="243.34" y1="823.25" x2="243.34" y2="822.42"/><line class="cls-10" x1="243.34" y1="814.67" x2="243.34" y2="404.34"/><line class="cls-9" x1="243.34" y1="400.46" x2="243.34" y2="399.63"/><line class="cls-9" x1="249.03" y1="823.25" x2="249.03" y2="822.42"/><line class="cls-10" x1="249.03" y1="814.67" x2="249.03" y2="404.34"/><line class="cls-9" x1="249.03" y1="400.46" x2="249.03" y2="399.63"/><line class="cls-9" x1="254.72" y1="823.25" x2="254.72" y2="822.42"/><line class="cls-10" x1="254.72" y1="814.67" x2="254.72" y2="404.34"/><line class="cls-9" x1="254.72" y1="400.46" x2="254.72" y2="399.63"/><line class="cls-9" x1="260.41" y1="823.25" x2="260.41" y2="822.42"/><line class="cls-10" x1="260.41" y1="814.67" x2="260.41" y2="404.34"/><line class="cls-9" x1="260.41" y1="400.46" x2="260.41" y2="399.63"/><line class="cls-9" x1="266.1" y1="823.25" x2="266.1" y2="822.42"/><line class="cls-10" x1="266.1" y1="814.67" x2="266.1" y2="404.34"/><line class="cls-9" x1="266.1" y1="400.46" x2="266.1" y2="399.63"/><line class="cls-9" x1="271.79" y1="823.25" x2="271.79" y2="822.42"/><line class="cls-10" x1="271.79" y1="814.67" x2="271.79" y2="404.34"/><line class="cls-9" x1="271.79" y1="400.46" x2="271.79" y2="399.63"/><line class="cls-9" x1="277.48" y1="823.25" x2="277.48" y2="822.42"/><line class="cls-10" x1="277.48" y1="814.67" x2="277.48" y2="404.34"/><line class="cls-9" x1="277.48" y1="400.46" x2="277.48" y2="399.63"/><line class="cls-9" x1="283.17" y1="823.25" x2="283.17" y2="822.42"/><line class="cls-10" x1="283.17" y1="814.67" x2="283.17" y2="404.34"/><line class="cls-9" x1="283.17" y1="400.46" x2="283.17" y2="399.63"/><line class="cls-9" x1="288.86" y1="823.25" x2="288.86" y2="822.42"/><line class="cls-10" x1="288.86" y1="814.67" x2="288.86" y2="404.34"/><line class="cls-9" x1="288.86" y1="400.46" x2="288.86" y2="399.63"/><line class="cls-9" x1="294.55" y1="823.25" x2="294.55" y2="822.42"/><line class="cls-10" x1="294.55" y1="814.67" x2="294.55" y2="404.34"/><line class="cls-9" x1="294.55" y1="400.46" x2="294.55" y2="399.63"/><line class="cls-9" x1="300.24" y1="823.25" x2="300.24" y2="822.42"/><line class="cls-10" x1="300.24" y1="814.67" x2="300.24" y2="404.34"/><line class="cls-9" x1="300.24" y1="400.46" x2="300.24" y2="399.63"/><line class="cls-9" x1="305.93" y1="823.25" x2="305.93" y2="822.42"/><line class="cls-10" x1="305.93" y1="814.67" x2="305.93" y2="404.34"/><line class="cls-9" x1="305.93" y1="400.46" x2="305.93" y2="399.63"/><line class="cls-9" x1="311.62" y1="823.25" x2="311.62" y2="822.42"/><line class="cls-10" x1="311.62" y1="814.67" x2="311.62" y2="404.34"/><line class="cls-9" x1="311.62" y1="400.46" x2="311.62" y2="399.63"/><line class="cls-9" x1="317.31" y1="823.25" x2="317.31" y2="822.42"/><line class="cls-10" x1="317.31" y1="814.67" x2="317.31" y2="404.34"/><line class="cls-9" x1="317.31" y1="400.46" x2="317.31" y2="399.63"/><line class="cls-9" x1="323" y1="823.25" x2="323" y2="822.42"/><line class="cls-10" x1="323" y1="814.67" x2="323" y2="404.34"/><line class="cls-9" x1="323" y1="400.46" x2="323" y2="399.63"/><line class="cls-9" x1="328.69" y1="823.25" x2="328.69" y2="822.42"/><line class="cls-10" x1="328.69" y1="814.67" x2="328.69" y2="404.34"/><line class="cls-9" x1="328.69" y1="400.46" x2="328.69" y2="399.63"/><line class="cls-9" x1="334.38" y1="823.25" x2="334.38" y2="822.42"/><line class="cls-10" x1="334.38" y1="814.67" x2="334.38" y2="404.34"/><line class="cls-9" x1="334.38" y1="400.46" x2="334.38" y2="399.63"/><line class="cls-9" x1="340.07" y1="823.25" x2="340.07" y2="822.42"/><line class="cls-10" x1="340.07" y1="814.67" x2="340.07" y2="404.34"/><line class="cls-9" x1="340.07" y1="400.46" x2="340.07" y2="399.63"/><line class="cls-9" x1="345.76" y1="823.25" x2="345.76" y2="822.42"/><line class="cls-10" x1="345.76" y1="814.67" x2="345.76" y2="404.34"/><line class="cls-9" x1="345.76" y1="400.46" x2="345.76" y2="399.63"/><line class="cls-9" x1="351.45" y1="823.25" x2="351.45" y2="822.42"/><line class="cls-10" x1="351.45" y1="814.67" x2="351.45" y2="404.34"/><line class="cls-9" x1="351.45" y1="400.46" x2="351.45" y2="399.63"/><line class="cls-9" x1="357.14" y1="823.25" x2="357.14" y2="822.42"/><line class="cls-10" x1="357.14" y1="814.67" x2="357.14" y2="404.34"/><line class="cls-9" x1="357.14" y1="400.46" x2="357.14" y2="399.63"/><line class="cls-9" x1="362.83" y1="823.25" x2="362.83" y2="822.42"/><line class="cls-10" x1="362.83" y1="814.67" x2="362.83" y2="404.34"/><line class="cls-9" x1="362.83" y1="400.46" x2="362.83" y2="399.63"/><line class="cls-9" x1="368.52" y1="823.25" x2="368.52" y2="822.42"/><line class="cls-10" x1="368.52" y1="814.67" x2="368.52" y2="404.34"/><line class="cls-9" x1="368.52" y1="400.46" x2="368.52" y2="399.63"/><line class="cls-9" x1="374.21" y1="823.25" x2="374.21" y2="822.42"/><line class="cls-10" x1="374.21" y1="814.67" x2="374.21" y2="404.34"/><line class="cls-9" x1="374.21" y1="400.46" x2="374.21" y2="399.63"/><line class="cls-9" x1="379.9" y1="823.25" x2="379.9" y2="822.42"/><line class="cls-10" x1="379.9" y1="814.67" x2="379.9" y2="404.34"/><line class="cls-9" x1="379.9" y1="400.46" x2="379.9" y2="399.63"/><line class="cls-9" x1="385.59" y1="823.25" x2="385.59" y2="822.42"/><line class="cls-10" x1="385.59" y1="814.67" x2="385.59" y2="404.34"/><line class="cls-9" x1="385.59" y1="400.46" x2="385.59" y2="399.63"/><line class="cls-9" x1="391.28" y1="823.25" x2="391.28" y2="822.42"/><line class="cls-10" x1="391.28" y1="814.67" x2="391.28" y2="404.34"/><line class="cls-9" x1="391.28" y1="400.46" x2="391.28" y2="399.63"/><line class="cls-9" x1="396.97" y1="823.25" x2="396.97" y2="822.42"/><line class="cls-10" x1="396.97" y1="814.67" x2="396.97" y2="404.34"/><line class="cls-9" x1="396.97" y1="400.46" x2="396.97" y2="399.63"/><line class="cls-9" x1="402.66" y1="823.25" x2="402.66" y2="822.42"/><line class="cls-10" x1="402.66" y1="814.67" x2="402.66" y2="404.34"/><line class="cls-9" x1="402.66" y1="400.46" x2="402.66" y2="399.63"/><line class="cls-9" x1="408.35" y1="823.25" x2="408.35" y2="822.42"/><line class="cls-10" x1="408.35" y1="814.67" x2="408.35" y2="404.34"/><line class="cls-9" x1="408.35" y1="400.46" x2="408.35" y2="399.63"/><line class="cls-9" x1="414.04" y1="823.25" x2="414.04" y2="822.42"/><line class="cls-10" x1="414.04" y1="814.67" x2="414.04" y2="404.34"/><line class="cls-9" x1="414.04" y1="400.46" x2="414.04" y2="399.63"/><line class="cls-9" x1="419.73" y1="823.25" x2="419.73" y2="822.42"/><line class="cls-10" x1="419.73" y1="814.67" x2="419.73" y2="404.34"/><line class="cls-9" x1="419.73" y1="400.46" x2="419.73" y2="399.63"/><line class="cls-9" x1="425.42" y1="823.25" x2="425.42" y2="822.42"/><line class="cls-10" x1="425.42" y1="814.67" x2="425.42" y2="404.34"/><line class="cls-9" x1="425.42" y1="400.46" x2="425.42" y2="399.63"/><line class="cls-9" x1="431.11" y1="823.25" x2="431.11" y2="822.42"/><line class="cls-10" x1="431.11" y1="814.67" x2="431.11" y2="404.34"/><line class="cls-9" x1="431.11" y1="400.46" x2="431.11" y2="399.63"/><line class="cls-9" x1="436.8" y1="823.25" x2="436.8" y2="822.42"/><line class="cls-10" x1="436.8" y1="814.67" x2="436.8" y2="404.34"/><line class="cls-9" x1="436.8" y1="400.46" x2="436.8" y2="399.63"/><line class="cls-9" x1="442.49" y1="823.25" x2="442.49" y2="822.42"/><line class="cls-10" x1="442.49" y1="814.67" x2="442.49" y2="404.34"/><line class="cls-9" x1="442.49" y1="400.46" x2="442.49" y2="399.63"/><line class="cls-9" x1="448.18" y1="823.25" x2="448.18" y2="822.42"/><line class="cls-10" x1="448.18" y1="814.67" x2="448.18" y2="404.34"/><line class="cls-9" x1="448.18" y1="400.46" x2="448.18" y2="399.63"/><line class="cls-9" x1="453.87" y1="823.25" x2="453.87" y2="822.42"/><line class="cls-10" x1="453.87" y1="814.67" x2="453.87" y2="404.34"/><line class="cls-9" x1="453.87" y1="400.46" x2="453.87" y2="399.63"/><line class="cls-9" x1="459.55" y1="823.25" x2="459.55" y2="822.42"/><line class="cls-10" x1="459.55" y1="814.67" x2="459.55" y2="404.34"/><line class="cls-9" x1="459.55" y1="400.46" x2="459.55" y2="399.63"/><line class="cls-9" x1="465.24" y1="823.25" x2="465.24" y2="822.42"/><line class="cls-10" x1="465.24" y1="814.67" x2="465.24" y2="404.34"/><line class="cls-9" x1="465.24" y1="400.46" x2="465.24" y2="399.63"/><line class="cls-9" x1="470.93" y1="823.25" x2="470.93" y2="822.42"/><line class="cls-10" x1="470.93" y1="814.67" x2="470.93" y2="404.34"/><line class="cls-9" x1="470.93" y1="400.46" x2="470.93" y2="399.63"/><line class="cls-9" x1="476.62" y1="823.25" x2="476.62" y2="822.42"/><line class="cls-10" x1="476.62" y1="814.67" x2="476.62" y2="404.34"/><line class="cls-9" x1="476.62" y1="400.46" x2="476.62" y2="399.63"/><line class="cls-9" x1="482.31" y1="823.25" x2="482.31" y2="822.42"/><line class="cls-10" x1="482.31" y1="814.67" x2="482.31" y2="404.34"/><line class="cls-9" x1="482.31" y1="400.46" x2="482.31" y2="399.63"/><line class="cls-9" x1="488" y1="823.25" x2="488" y2="822.42"/><line class="cls-10" x1="488" y1="814.67" x2="488" y2="404.34"/><line class="cls-9" x1="488" y1="400.46" x2="488" y2="399.63"/></g></svg>