<svg id="_2" data-name="2" xmlns="http://www.w3.org/2000/svg" viewBox="0 0 700 1600"><defs><style>.cls-1,.cls-3,.cls-4,.cls-5{fill:none;stroke-miterlimit:10;}.cls-1{stroke:#85b7de;}.cls-1,.cls-3{stroke-linecap:round;stroke-width:6px;}.cls-2{fill:#9bc985;}.cls-3,.cls-4,.cls-5{stroke:#9bc985;}.cls-4,.cls-5{stroke-width:3px;}.cls-5{stroke-dasharray:16.11 16.11;}</style></defs><path class="cls-1" d="M322.72,819.79c-16.74,87.07,13.84,175,25.81,249.09,4.29,26.47,7.08,53.22,9.53,79.94,1.68,18.3,5.84,35.49,15.32,51.34,19.43,32.44,33.54,66.91,39.45,104.49,2.94,18.7,5.78,37.42,9.37,56,1.48,7.65,4.94,14.91,7.26,22.41,1.5,4.85,3.14,9.76,3.73,14.76,1.74,14.84-5.12,24-19.66,26.61-16.82,3-29.93-3.24-39.64-16.9a50.6,50.6,0,0,1-9.24-28.69c-.25-12.66-5.73-22.5-15.56-29.56-19.79-14.22-32-34.55-44.1-54.68-10.42-17.41-11.47-37.42-5.67-56.56,7.63-25.19.43-45.09-17-63.2-21.18-22-88.36-75.82-102.26-173.34S242.9,549.28,242.9,549.28a119.34,119.34,0,0,0-.21-33.07c-2.42-17.83-7.26-35.32-9.64-53.15-5.89-44.2-.47-87.68,10-130.74,7.65-31.59,17.61-62.31,33.73-90.73,10.6-18.67,23.49-35.48,40.62-48.74,26.59-20.57,56.48-26.29,89.13-20C584.28,214.19,555.82,432.43,535.73,457,535.73,457,339.47,732.72,322.72,819.79Z"/><path class="cls-2" d="M387.32,283.68V229.45a2.28,2.28,0,0,1,3.27-2l51.44,25a2.27,2.27,0,0,1,.12,4l-51.43,29.18A2.27,2.27,0,0,1,387.32,283.68Z"/><line class="cls-3" x1="389.35" y1="230.16" x2="389.35" y2="358.64"/><line class="cls-4" x1="383" y1="397.83" x2="380.76" y2="405.51"/><polyline class="cls-5" points="376.24 420.98 232.3 913.55 371.39 1302.81"/><line class="cls-4" x1="374.1" y1="1310.39" x2="376.79" y2="1317.93"/><rect class="cls-2" x="385.61" y="1360.09" width="15.91" height="27.74" rx="3.08" transform="translate(-208.2 77.6) rotate(-8.92)"/></svg>