<svg id="_18" data-name="18" xmlns="http://www.w3.org/2000/svg" viewBox="0 0 700 1600"><defs><style>.cls-1,.cls-2,.cls-3,.cls-5{fill:none;stroke-miterlimit:10;}.cls-1{stroke:#86b8df;}.cls-1,.cls-5{stroke-width:6px;}.cls-2,.cls-3,.cls-5{stroke:#9bc985;}.cls-2,.cls-3{stroke-width:3px;}.cls-3{stroke-dasharray:16.23 16.23;}.cls-4{fill:#9bc985;}.cls-5{stroke-linecap:round;}</style></defs><path class="cls-1" d="M501.44,1457c-1-14.69-3.91-32.2-13.17-47.5-15.25-25.19-22.5-52.62-25-81.5-1.17-13.35-2.25-26.89-1.33-40.21,3.86-55.72,0-111.06-8.18-166.08-8.28-55.33-16.63-110.71-27.46-165.57a570.37,570.37,0,0,0-51.61-149c-13.46-26.42-25.75-53.29-29.92-83.14-4.85-34.77-5.07-69.2,6-103,22.53-68.51,44.4-137.26,68.09-205.37,6.75-19.42,17.59-37.76,28.69-55.23,25.73-40.52,42.9-84.25,49-131.59C513.63,115.7,457.41,74.53,408.64,92c-36.43,13.07-63.43,38.17-81.69,71.71-14.89,27.35-32,53.06-50.44,78-10.3,13.91-14.3,29.42-10.58,45.89,7.43,32.88-.6,63.09-12.74,93.2-12.77,31.68-27.5,62.83-33,96.91a362.14,362.14,0,0,0-4.78,51c-.55,28.86-15.12,111.28-15.54,117.74-2.84,43.18-1.87,85.84,12,127.63,4.9,14.75,7.06,30.76,8.12,46.35,2.19,32.19,10.27,62.92,20.46,93.2,6.6,19.6,10.21,39.47,8,60-3.09,28.31,4.06,54,17.91,78.4,17.63,31.09,31.32,63.92,42.3,97.9,6.69,20.74,11.68,41.79,13,63.7,1.52,25.47,9.39,49.44,23.69,70.25,28.18,41,38.62,87.55,45.55,135.47,2.45,16.93,4.82,33.88,7.61,50.75,4.17,25.13,32.39,45.06,60.73,41.17C485.93,1507.68,501.75,1488.47,501.44,1457Z"/><line class="cls-2" x1="351.93" y1="330.51" x2="350.21" y2="338.32"/><polyline class="cls-3" points="346.71 354.18 270.28 700.63 431.81 1390.42"/><line class="cls-2" x1="433.67" y1="1398.32" x2="435.49" y2="1406.11"/><rect class="cls-4" x="443.72" y="1449.73" width="15.91" height="27.74" rx="3.08" transform="translate(1119.39 2842.11) rotate(171.31)"/><path class="cls-4" d="M395.38,192.42V138.19a2.28,2.28,0,0,1,3.27-2.05l51.44,25.05a2.27,2.27,0,0,1,.12,4L398.78,194.4A2.28,2.28,0,0,1,395.38,192.42Z"/><line class="cls-5" x1="397.41" y1="138.9" x2="397.41" y2="267.38"/></svg>