<svg id="Ebene_1" data-name="Ebene 1" xmlns="http://www.w3.org/2000/svg" xmlns:xlink="http://www.w3.org/1999/xlink" viewBox="0 0 472.88 1328.66"><defs><style>.cls-1,.cls-10,.cls-11,.cls-2,.cls-4,.cls-5,.cls-7,.cls-9{fill:none;}.cls-2{stroke:#85b7de;}.cls-2,.cls-9{stroke-linecap:round;stroke-width:6px;}.cls-10,.cls-11,.cls-2,.cls-4,.cls-5,.cls-7,.cls-9{stroke-miterlimit:10;}.cls-3{clip-path:url(#clip-path);}.cls-10,.cls-11,.cls-4,.cls-5,.cls-7,.cls-9{stroke:#86b8df;}.cls-4,.cls-5{stroke-width:2.22px;}.cls-5{stroke-dasharray:1.66 7.75;}.cls-6{clip-path:url(#clip-path-2);}.cls-7{stroke-width:1.5px;}.cls-8{fill:#85b7de;}.cls-10,.cls-11{stroke-width:3px;}.cls-11{stroke-dasharray:15.84 15.84;}.cls-12{fill:#86b8df;}</style><clipPath id="clip-path" transform="translate(0 67.91)"><path class="cls-1" d="M173.63,100.82c-63.32-12.73-26.83,120.43-18.09,148.65,2.92,9.43,20.91,51,38.11,20.23,8.48-18.63-13.85-45.7-14.9-72.59C177.57,163.16,215.52,109.3,173.63,100.82Z"/></clipPath><clipPath id="clip-path-2" transform="translate(0 67.91)"><path class="cls-1" d="M354.21,326.81C242.35,233.44,153.37,542.46,140.78,605.67c-4.2,21.11-48,84.84,21.21,64.11,36.52-26.15,74-102,100.38-154.28C296,449.66,378.5,382,354.21,326.81Z"/></clipPath></defs><path class="cls-2" d="M135.15,703.07c-6.14,46.14,26,124.28,38,198.41,4.29,26.47,7.08,53.22,9.53,79.93,1.67,18.31,5.83,35.5,15.31,51.34,19.43,32.45,33.55,66.92,39.46,104.5,2.93,18.69,5.77,37.42,9.36,56,1.48,7.65,4.94,14.9,7.27,22.41,1.5,4.84,3.14,9.76,3.73,14.75,1.74,14.85-5.13,24-19.66,26.61-16.82,3-29.94-3.23-39.64-16.9a50.56,50.56,0,0,1-9.25-28.68c-.25-12.66-5.73-22.5-15.55-29.56-19.79-14.23-32-34.56-44.1-54.69-10.43-17.4-11.47-37.41-5.67-56.55,7.63-25.19.43-45.09-17-63.2-21.19-22-88.36-75.82-102.27-173.35s62.86-452.2,62.86-452.2a119,119,0,0,0-.22-33.08c-2.41-17.82-7.25-35.32-9.63-53.15-5.9-44.2-.48-87.67,10-130.73,7.66-31.59,17.61-62.31,33.73-90.73C112,55.52,124.86,38.71,142,25.45,168.59,4.87,198.47-.85,231.12,5.39,408.92,46.79,380.45,265,360.36,289.58" transform="translate(0 67.91)"/><g class="cls-3"><line class="cls-4" x1="68.78" y1="423.63" x2="68.78" y2="422.79"/><line class="cls-5" x1="68.78" y1="415.04" x2="68.78" y2="4.71"/><line class="cls-4" x1="68.78" y1="0.83" x2="68.78"/><line class="cls-4" x1="74.47" y1="423.63" x2="74.47" y2="422.79"/><line class="cls-5" x1="74.47" y1="415.04" x2="74.47" y2="4.71"/><line class="cls-4" x1="74.47" y1="0.83" x2="74.47"/><line class="cls-4" x1="80.16" y1="423.63" x2="80.16" y2="422.79"/><line class="cls-5" x1="80.16" y1="415.04" x2="80.16" y2="4.71"/><line class="cls-4" x1="80.16" y1="0.83" x2="80.16"/><line class="cls-4" x1="85.85" y1="423.63" x2="85.85" y2="422.79"/><line class="cls-5" x1="85.85" y1="415.04" x2="85.85" y2="4.71"/><line class="cls-4" x1="85.85" y1="0.83" x2="85.85"/><line class="cls-4" x1="91.53" y1="423.63" x2="91.53" y2="422.79"/><line class="cls-5" x1="91.53" y1="415.04" x2="91.53" y2="4.71"/><line class="cls-4" x1="91.53" y1="0.83" x2="91.53"/><line class="cls-4" x1="97.22" y1="423.63" x2="97.22" y2="422.79"/><line class="cls-5" x1="97.22" y1="415.04" x2="97.22" y2="4.71"/><line class="cls-4" x1="97.22" y1="0.83" x2="97.22"/><line class="cls-4" x1="102.91" y1="423.63" x2="102.91" y2="422.79"/><line class="cls-5" x1="102.91" y1="415.04" x2="102.91" y2="4.71"/><line class="cls-4" x1="102.91" y1="0.83" x2="102.91"/><line class="cls-4" x1="108.6" y1="423.63" x2="108.6" y2="422.79"/><line class="cls-5" x1="108.6" y1="415.04" x2="108.6" y2="4.71"/><line class="cls-4" x1="108.6" y1="0.83" x2="108.6"/><line class="cls-4" x1="114.29" y1="423.63" x2="114.29" y2="422.79"/><line class="cls-5" x1="114.29" y1="415.04" x2="114.29" y2="4.71"/><line class="cls-4" x1="114.29" y1="0.83" x2="114.29"/><line class="cls-4" x1="119.98" y1="423.63" x2="119.98" y2="422.79"/><line class="cls-5" x1="119.98" y1="415.04" x2="119.98" y2="4.71"/><line class="cls-4" x1="119.98" y1="0.83" x2="119.98"/><line class="cls-4" x1="125.67" y1="423.63" x2="125.67" y2="422.79"/><line class="cls-5" x1="125.67" y1="415.04" x2="125.67" y2="4.71"/><line class="cls-4" x1="125.67" y1="0.83" x2="125.67"/><line class="cls-4" x1="131.36" y1="423.63" x2="131.36" y2="422.79"/><line class="cls-5" x1="131.36" y1="415.04" x2="131.36" y2="4.71"/><line class="cls-4" x1="131.36" y1="0.83" x2="131.36"/><line class="cls-4" x1="137.05" y1="423.63" x2="137.05" y2="422.79"/><line class="cls-5" x1="137.05" y1="415.04" x2="137.05" y2="4.71"/><line class="cls-4" x1="137.05" y1="0.83" x2="137.05"/><line class="cls-4" x1="142.74" y1="423.63" x2="142.74" y2="422.79"/><line class="cls-5" x1="142.74" y1="415.04" x2="142.74" y2="4.71"/><line class="cls-4" x1="142.74" y1="0.83" x2="142.74"/><line class="cls-4" x1="148.43" y1="423.63" x2="148.43" y2="422.79"/><line class="cls-5" x1="148.43" y1="415.04" x2="148.43" y2="4.71"/><line class="cls-4" x1="148.43" y1="0.83" x2="148.43"/><line class="cls-4" x1="154.12" y1="423.63" x2="154.12" y2="422.79"/><line class="cls-5" x1="154.12" y1="415.04" x2="154.12" y2="4.71"/><line class="cls-4" x1="154.12" y1="0.83" x2="154.12"/><line class="cls-4" x1="159.81" y1="423.63" x2="159.81" y2="422.79"/><line class="cls-5" x1="159.81" y1="415.04" x2="159.81" y2="4.71"/><line class="cls-4" x1="159.81" y1="0.83" x2="159.81"/><line class="cls-4" x1="165.5" y1="423.63" x2="165.5" y2="422.79"/><line class="cls-5" x1="165.5" y1="415.04" x2="165.5" y2="4.71"/><line class="cls-4" x1="165.5" y1="0.83" x2="165.5"/><line class="cls-4" x1="171.19" y1="423.63" x2="171.19" y2="422.79"/><line class="cls-5" x1="171.19" y1="415.04" x2="171.19" y2="4.71"/><line class="cls-4" x1="171.19" y1="0.83" x2="171.19"/><line class="cls-4" x1="176.88" y1="423.63" x2="176.88" y2="422.79"/><line class="cls-5" x1="176.88" y1="415.04" x2="176.88" y2="4.71"/><line class="cls-4" x1="176.88" y1="0.83" x2="176.88"/><line class="cls-4" x1="182.57" y1="423.63" x2="182.57" y2="422.79"/><line class="cls-5" x1="182.57" y1="415.04" x2="182.57" y2="4.71"/><line class="cls-4" x1="182.57" y1="0.83" x2="182.57"/><line class="cls-4" x1="188.26" y1="423.63" x2="188.26" y2="422.79"/><line class="cls-5" x1="188.26" y1="415.04" x2="188.26" y2="4.71"/><line class="cls-4" x1="188.26" y1="0.83" x2="188.26"/><line class="cls-4" x1="193.95" y1="423.63" x2="193.95" y2="422.79"/><line class="cls-5" x1="193.95" y1="415.04" x2="193.95" y2="4.71"/><line class="cls-4" x1="193.95" y1="0.83" x2="193.95"/><line class="cls-4" x1="199.64" y1="423.63" x2="199.64" y2="422.79"/><line class="cls-5" x1="199.64" y1="415.04" x2="199.64" y2="4.71"/><line class="cls-4" x1="199.64" y1="0.83" x2="199.64"/><line class="cls-4" x1="205.33" y1="423.63" x2="205.33" y2="422.79"/><line class="cls-5" x1="205.33" y1="415.04" x2="205.33" y2="4.71"/><line class="cls-4" x1="205.33" y1="0.83" x2="205.33"/><line class="cls-4" x1="211.02" y1="423.63" x2="211.02" y2="422.79"/><line class="cls-5" x1="211.02" y1="415.04" x2="211.02" y2="4.71"/><line class="cls-4" x1="211.02" y1="0.83" x2="211.02"/><line class="cls-4" x1="216.71" y1="423.63" x2="216.71" y2="422.79"/><line class="cls-5" x1="216.71" y1="415.04" x2="216.71" y2="4.71"/><line class="cls-4" x1="216.71" y1="0.83" x2="216.71"/><line class="cls-4" x1="222.4" y1="423.63" x2="222.4" y2="422.79"/><line class="cls-5" x1="222.4" y1="415.04" x2="222.4" y2="4.71"/><line class="cls-4" x1="222.4" y1="0.83" x2="222.4"/><line class="cls-4" x1="228.09" y1="423.63" x2="228.09" y2="422.79"/><line class="cls-5" x1="228.09" y1="415.04" x2="228.09" y2="4.71"/><line class="cls-4" x1="228.09" y1="0.83" x2="228.09"/><line class="cls-4" x1="233.78" y1="423.63" x2="233.78" y2="422.79"/><line class="cls-5" x1="233.78" y1="415.04" x2="233.78" y2="4.71"/><line class="cls-4" x1="233.78" y1="0.83" x2="233.78"/><line class="cls-4" x1="239.47" y1="423.63" x2="239.47" y2="422.79"/><line class="cls-5" x1="239.47" y1="415.04" x2="239.47" y2="4.71"/><line class="cls-4" x1="239.47" y1="0.83" x2="239.47"/><line class="cls-4" x1="245.16" y1="423.63" x2="245.16" y2="422.79"/><line class="cls-5" x1="245.16" y1="415.04" x2="245.16" y2="4.71"/><line class="cls-4" x1="245.16" y1="0.83" x2="245.16"/><line class="cls-4" x1="250.85" y1="423.63" x2="250.85" y2="422.79"/><line class="cls-5" x1="250.85" y1="415.04" x2="250.85" y2="4.71"/><line class="cls-4" x1="250.85" y1="0.83" x2="250.85"/><line class="cls-4" x1="256.54" y1="423.63" x2="256.54" y2="422.79"/><line class="cls-5" x1="256.54" y1="415.04" x2="256.54" y2="4.71"/><line class="cls-4" x1="256.54" y1="0.83" x2="256.54"/><line class="cls-4" x1="262.23" y1="423.63" x2="262.23" y2="422.79"/><line class="cls-5" x1="262.23" y1="415.04" x2="262.23" y2="4.71"/><line class="cls-4" x1="262.23" y1="0.83" x2="262.23"/><line class="cls-4" x1="267.92" y1="423.63" x2="267.92" y2="422.79"/><line class="cls-5" x1="267.92" y1="415.04" x2="267.92" y2="4.71"/><line class="cls-4" x1="267.92" y1="0.83" x2="267.92"/><line class="cls-4" x1="273.61" y1="423.63" x2="273.61" y2="422.79"/><line class="cls-5" x1="273.61" y1="415.04" x2="273.61" y2="4.71"/><line class="cls-4" x1="273.61" y1="0.83" x2="273.61"/><line class="cls-4" x1="279.3" y1="423.63" x2="279.3" y2="422.79"/><line class="cls-5" x1="279.3" y1="415.04" x2="279.3" y2="4.71"/><line class="cls-4" x1="279.3" y1="0.83" x2="279.3"/><line class="cls-4" x1="284.99" y1="423.63" x2="284.99" y2="422.79"/><line class="cls-5" x1="284.99" y1="415.04" x2="284.99" y2="4.71"/><line class="cls-4" x1="284.99" y1="0.83" x2="284.99"/><line class="cls-4" x1="290.68" y1="423.63" x2="290.68" y2="422.79"/><line class="cls-5" x1="290.68" y1="415.04" x2="290.68" y2="4.71"/><line class="cls-4" x1="290.68" y1="0.83" x2="290.68"/><line class="cls-4" x1="296.37" y1="423.63" x2="296.37" y2="422.79"/><line class="cls-5" x1="296.37" y1="415.04" x2="296.37" y2="4.71"/><line class="cls-4" x1="296.37" y1="0.83" x2="296.37"/><line class="cls-4" x1="302.06" y1="423.63" x2="302.06" y2="422.79"/><line class="cls-5" x1="302.06" y1="415.04" x2="302.06" y2="4.71"/><line class="cls-4" x1="302.06" y1="0.83" x2="302.06"/><line class="cls-4" x1="307.75" y1="423.63" x2="307.75" y2="422.79"/><line class="cls-5" x1="307.75" y1="415.04" x2="307.75" y2="4.71"/><line class="cls-4" x1="307.75" y1="0.83" x2="307.75"/><line class="cls-4" x1="313.44" y1="423.63" x2="313.44" y2="422.79"/><line class="cls-5" x1="313.44" y1="415.04" x2="313.44" y2="4.71"/><line class="cls-4" x1="313.44" y1="0.83" x2="313.44"/></g><g class="cls-6"><path class="cls-7" d="M20,689.89c10.23,0,10.23,6.8,20.45,6.8s10.22-6.8,20.45-6.8,10.22,6.8,20.44,6.8,10.22-6.8,20.45-6.8,10.22,6.8,20.44,6.8,10.23-6.8,20.45-6.8,10.22,6.8,20.45,6.8,10.22-6.8,20.45-6.8,10.22,6.8,20.44,6.8,10.23-6.8,20.45-6.8,10.22,6.8,20.44,6.8,10.23-6.8,20.45-6.8,10.22,6.8,20.45,6.8,10.22-6.8,20.44-6.8,10.23,6.8,20.45,6.8,10.23-6.8,20.45-6.8,10.23,6.8,20.45,6.8,10.23-6.8,20.45-6.8,10.23,6.8,20.45,6.8,10.23-6.8,20.45-6.8,10.23,6.8,20.46,6.8,10.23-6.8,20.45-6.8" transform="translate(0 67.91)"/><path class="cls-7" d="M20,677.52c10.23,0,10.23,6.8,20.45,6.8s10.22-6.8,20.45-6.8,10.22,6.8,20.44,6.8,10.22-6.8,20.45-6.8,10.22,6.8,20.44,6.8,10.23-6.8,20.45-6.8,10.22,6.8,20.45,6.8,10.22-6.8,20.45-6.8,10.22,6.8,20.44,6.8,10.23-6.8,20.45-6.8,10.22,6.8,20.44,6.8,10.23-6.8,20.45-6.8,10.22,6.8,20.45,6.8,10.22-6.8,20.44-6.8,10.23,6.8,20.45,6.8,10.23-6.8,20.45-6.8,10.23,6.8,20.45,6.8,10.23-6.8,20.45-6.8,10.23,6.8,20.45,6.8,10.23-6.8,20.45-6.8,10.23,6.8,20.46,6.8,10.23-6.8,20.45-6.8" transform="translate(0 67.91)"/><path class="cls-7" d="M20,665.14c10.23,0,10.23,6.81,20.45,6.81s10.22-6.81,20.45-6.81S71.14,672,81.36,672s10.22-6.81,20.45-6.81S112,672,122.25,672s10.23-6.81,20.45-6.81S152.92,672,163.15,672s10.22-6.81,20.45-6.81S193.82,672,204,672s10.23-6.81,20.45-6.81S234.71,672,244.93,672s10.23-6.81,20.45-6.81S275.6,672,285.83,672s10.22-6.81,20.44-6.81S316.5,672,326.72,672s10.23-6.81,20.45-6.81S357.4,672,367.62,672s10.23-6.81,20.45-6.81S398.3,672,408.52,672s10.23-6.81,20.45-6.81S439.2,672,449.43,672s10.23-6.81,20.45-6.81" transform="translate(0 67.91)"/><path class="cls-7" d="M20,652.77c10.23,0,10.23,6.81,20.45,6.81s10.22-6.81,20.45-6.81,10.22,6.81,20.44,6.81,10.22-6.81,20.45-6.81,10.22,6.81,20.44,6.81,10.23-6.81,20.45-6.81,10.22,6.81,20.45,6.81,10.22-6.81,20.45-6.81,10.22,6.81,20.44,6.81,10.23-6.81,20.45-6.81,10.22,6.81,20.44,6.81,10.23-6.81,20.45-6.81,10.22,6.81,20.45,6.81,10.22-6.81,20.44-6.81,10.23,6.81,20.45,6.81,10.23-6.81,20.45-6.81,10.23,6.81,20.45,6.81,10.23-6.81,20.45-6.81,10.23,6.81,20.45,6.81,10.23-6.81,20.45-6.81,10.23,6.81,20.46,6.81,10.23-6.81,20.45-6.81" transform="translate(0 67.91)"/><path class="cls-7" d="M20,640.4c10.23,0,10.23,6.8,20.45,6.8s10.22-6.8,20.45-6.8,10.22,6.8,20.44,6.8,10.22-6.8,20.45-6.8,10.22,6.8,20.44,6.8,10.23-6.8,20.45-6.8,10.22,6.8,20.45,6.8,10.22-6.8,20.45-6.8,10.22,6.8,20.44,6.8,10.23-6.8,20.45-6.8,10.22,6.8,20.44,6.8,10.23-6.8,20.45-6.8,10.22,6.8,20.45,6.8,10.22-6.8,20.44-6.8,10.23,6.8,20.45,6.8,10.23-6.8,20.45-6.8,10.23,6.8,20.45,6.8,10.23-6.8,20.45-6.8,10.23,6.8,20.45,6.8,10.23-6.8,20.45-6.8,10.23,6.8,20.46,6.8,10.23-6.8,20.45-6.8" transform="translate(0 67.91)"/><path class="cls-7" d="M20,628c10.23,0,10.23,6.8,20.45,6.8S50.69,628,60.92,628s10.22,6.8,20.44,6.8,10.22-6.8,20.45-6.8,10.22,6.8,20.44,6.8,10.23-6.8,20.45-6.8,10.22,6.8,20.45,6.8,10.22-6.8,20.45-6.8,10.22,6.8,20.44,6.8,10.23-6.8,20.45-6.8,10.22,6.8,20.44,6.8,10.23-6.8,20.45-6.8,10.22,6.8,20.45,6.8,10.22-6.8,20.44-6.8,10.23,6.8,20.45,6.8S337,628,347.17,628s10.23,6.8,20.45,6.8,10.23-6.8,20.45-6.8,10.23,6.8,20.45,6.8S418.75,628,429,628s10.23,6.8,20.46,6.8,10.23-6.8,20.45-6.8" transform="translate(0 67.91)"/><path class="cls-7" d="M20,615.66c10.23,0,10.23,6.8,20.45,6.8s10.22-6.8,20.45-6.8,10.22,6.8,20.44,6.8,10.22-6.8,20.45-6.8,10.22,6.8,20.44,6.8,10.23-6.8,20.45-6.8,10.22,6.8,20.45,6.8,10.22-6.8,20.45-6.8,10.22,6.8,20.44,6.8,10.23-6.8,20.45-6.8,10.22,6.8,20.44,6.8,10.23-6.8,20.45-6.8,10.22,6.8,20.45,6.8,10.22-6.8,20.44-6.8,10.23,6.8,20.45,6.8,10.23-6.8,20.45-6.8,10.23,6.8,20.45,6.8,10.23-6.8,20.45-6.8,10.23,6.8,20.45,6.8,10.23-6.8,20.45-6.8,10.23,6.8,20.46,6.8,10.23-6.8,20.45-6.8" transform="translate(0 67.91)"/><path class="cls-7" d="M23,603.28c10.23,0,10.23,6.81,20.45,6.81s10.22-6.81,20.45-6.81,10.22,6.81,20.44,6.81,10.22-6.81,20.45-6.81,10.22,6.81,20.44,6.81,10.23-6.81,20.45-6.81,10.22,6.81,20.45,6.81,10.22-6.81,20.45-6.81,10.22,6.81,20.44,6.81,10.23-6.81,20.45-6.81,10.22,6.81,20.44,6.81,10.23-6.81,20.45-6.81,10.22,6.81,20.45,6.81,10.22-6.81,20.44-6.81,10.23,6.81,20.45,6.81,10.23-6.81,20.45-6.81,10.23,6.81,20.45,6.81,10.23-6.81,20.45-6.81,10.23,6.81,20.45,6.81,10.23-6.81,20.45-6.81,10.23,6.81,20.46,6.81,10.23-6.81,20.45-6.81" transform="translate(0 67.91)"/><path class="cls-7" d="M20,590.91c10.23,0,10.23,6.81,20.45,6.81s10.22-6.81,20.45-6.81,10.22,6.81,20.44,6.81,10.22-6.81,20.45-6.81,10.22,6.81,20.44,6.81,10.23-6.81,20.45-6.81,10.22,6.81,20.45,6.81,10.22-6.81,20.45-6.81,10.22,6.81,20.44,6.81,10.23-6.81,20.45-6.81,10.22,6.81,20.44,6.81,10.23-6.81,20.45-6.81,10.22,6.81,20.45,6.81,10.22-6.81,20.44-6.81,10.23,6.81,20.45,6.81,10.23-6.81,20.45-6.81,10.23,6.81,20.45,6.81,10.23-6.81,20.45-6.81,10.23,6.81,20.45,6.81,10.23-6.81,20.45-6.81,10.23,6.81,20.46,6.81,10.23-6.81,20.45-6.81" transform="translate(0 67.91)"/><path class="cls-7" d="M20,578.54c10.23,0,10.23,6.8,20.45,6.8s10.22-6.8,20.45-6.8,10.22,6.8,20.44,6.8,10.22-6.8,20.45-6.8,10.22,6.8,20.44,6.8,10.23-6.8,20.45-6.8,10.22,6.8,20.45,6.8,10.22-6.8,20.45-6.8,10.22,6.8,20.44,6.8,10.23-6.8,20.45-6.8,10.22,6.8,20.44,6.8,10.23-6.8,20.45-6.8,10.22,6.8,20.45,6.8,10.22-6.8,20.44-6.8,10.23,6.8,20.45,6.8,10.23-6.8,20.45-6.8,10.23,6.8,20.45,6.8,10.23-6.8,20.45-6.8,10.23,6.8,20.45,6.8,10.23-6.8,20.45-6.8,10.23,6.8,20.46,6.8,10.23-6.8,20.45-6.8" transform="translate(0 67.91)"/><path class="cls-7" d="M20,566.17c10.23,0,10.23,6.8,20.45,6.8s10.22-6.8,20.45-6.8S71.14,573,81.36,573s10.22-6.8,20.45-6.8S112,573,122.25,573s10.23-6.8,20.45-6.8,10.22,6.8,20.45,6.8,10.22-6.8,20.45-6.8S193.82,573,204,573s10.23-6.8,20.45-6.8,10.22,6.8,20.44,6.8,10.23-6.8,20.45-6.8,10.22,6.8,20.45,6.8,10.22-6.8,20.44-6.8,10.23,6.8,20.45,6.8,10.23-6.8,20.45-6.8,10.23,6.8,20.45,6.8,10.23-6.8,20.45-6.8,10.23,6.8,20.45,6.8,10.23-6.8,20.45-6.8,10.23,6.8,20.46,6.8,10.23-6.8,20.45-6.8" transform="translate(0 67.91)"/><path class="cls-7" d="M20,553.8c10.23,0,10.23,6.8,20.45,6.8s10.22-6.8,20.45-6.8,10.22,6.8,20.44,6.8,10.22-6.8,20.45-6.8,10.22,6.8,20.44,6.8,10.23-6.8,20.45-6.8,10.22,6.8,20.45,6.8,10.22-6.8,20.45-6.8,10.22,6.8,20.44,6.8,10.23-6.8,20.45-6.8,10.22,6.8,20.44,6.8,10.23-6.8,20.45-6.8,10.22,6.8,20.45,6.8,10.22-6.8,20.44-6.8,10.23,6.8,20.45,6.8,10.23-6.8,20.45-6.8,10.23,6.8,20.45,6.8,10.23-6.8,20.45-6.8,10.23,6.8,20.45,6.8,10.23-6.8,20.45-6.8,10.23,6.8,20.46,6.8,10.23-6.8,20.45-6.8" transform="translate(0 67.91)"/><path class="cls-7" d="M20,541.42c10.23,0,10.23,6.81,20.45,6.81s10.22-6.81,20.45-6.81,10.22,6.81,20.44,6.81,10.22-6.81,20.45-6.81,10.22,6.81,20.44,6.81,10.23-6.81,20.45-6.81,10.22,6.81,20.45,6.81,10.22-6.81,20.45-6.81,10.22,6.81,20.44,6.81,10.23-6.81,20.45-6.81,10.22,6.81,20.44,6.81,10.23-6.81,20.45-6.81,10.22,6.81,20.45,6.81,10.22-6.81,20.44-6.81,10.23,6.81,20.45,6.81,10.23-6.81,20.45-6.81,10.23,6.81,20.45,6.81,10.23-6.81,20.45-6.81,10.23,6.81,20.45,6.81,10.23-6.81,20.45-6.81,10.23,6.81,20.46,6.81,10.23-6.81,20.45-6.81" transform="translate(0 67.91)"/><path class="cls-7" d="M20,529.05c10.23,0,10.23,6.8,20.45,6.8s10.22-6.8,20.45-6.8,10.22,6.8,20.44,6.8,10.22-6.8,20.45-6.8,10.22,6.8,20.44,6.8,10.23-6.8,20.45-6.8,10.22,6.8,20.45,6.8,10.22-6.8,20.45-6.8,10.22,6.8,20.44,6.8,10.23-6.8,20.45-6.8,10.22,6.8,20.44,6.8,10.23-6.8,20.45-6.8,10.22,6.8,20.45,6.8,10.22-6.8,20.44-6.8,10.23,6.8,20.45,6.8,10.23-6.8,20.45-6.8,10.23,6.8,20.45,6.8,10.23-6.8,20.45-6.8,10.23,6.8,20.45,6.8,10.23-6.8,20.45-6.8,10.23,6.8,20.46,6.8,10.23-6.8,20.45-6.8" transform="translate(0 67.91)"/><path class="cls-7" d="M20,516.68c10.23,0,10.23,6.8,20.45,6.8s10.22-6.8,20.45-6.8,10.22,6.8,20.44,6.8,10.22-6.8,20.45-6.8,10.22,6.8,20.44,6.8,10.23-6.8,20.45-6.8,10.22,6.8,20.45,6.8,10.22-6.8,20.45-6.8,10.22,6.8,20.44,6.8,10.23-6.8,20.45-6.8,10.22,6.8,20.44,6.8,10.23-6.8,20.45-6.8,10.22,6.8,20.45,6.8,10.22-6.8,20.44-6.8,10.23,6.8,20.45,6.8,10.23-6.8,20.45-6.8,10.23,6.8,20.45,6.8,10.23-6.8,20.45-6.8,10.23,6.8,20.45,6.8,10.23-6.8,20.45-6.8,10.23,6.8,20.46,6.8,10.23-6.8,20.45-6.8" transform="translate(0 67.91)"/><path class="cls-7" d="M20,504.31c10.23,0,10.23,6.8,20.45,6.8s10.22-6.8,20.45-6.8,10.22,6.8,20.44,6.8,10.22-6.8,20.45-6.8,10.22,6.8,20.44,6.8,10.23-6.8,20.45-6.8,10.22,6.8,20.45,6.8,10.22-6.8,20.45-6.8,10.22,6.8,20.44,6.8,10.23-6.8,20.45-6.8,10.22,6.8,20.44,6.8,10.23-6.8,20.45-6.8,10.22,6.8,20.45,6.8,10.22-6.8,20.44-6.8,10.23,6.8,20.45,6.8,10.23-6.8,20.45-6.8,10.23,6.8,20.45,6.8,10.23-6.8,20.45-6.8,10.23,6.8,20.45,6.8,10.23-6.8,20.45-6.8,10.23,6.8,20.46,6.8,10.23-6.8,20.45-6.8" transform="translate(0 67.91)"/><path class="cls-7" d="M20,491.94c10.23,0,10.23,6.8,20.45,6.8s10.22-6.8,20.45-6.8,10.22,6.8,20.44,6.8,10.22-6.8,20.45-6.8,10.22,6.8,20.44,6.8,10.23-6.8,20.45-6.8,10.22,6.8,20.45,6.8,10.22-6.8,20.45-6.8,10.22,6.8,20.44,6.8,10.23-6.8,20.45-6.8,10.22,6.8,20.44,6.8,10.23-6.8,20.45-6.8,10.22,6.8,20.45,6.8,10.22-6.8,20.44-6.8,10.23,6.8,20.45,6.8,10.23-6.8,20.45-6.8,10.23,6.8,20.45,6.8,10.23-6.8,20.45-6.8,10.23,6.8,20.45,6.8,10.23-6.8,20.45-6.8,10.23,6.8,20.46,6.8,10.23-6.8,20.45-6.8" transform="translate(0 67.91)"/><path class="cls-7" d="M20,479.56c10.23,0,10.23,6.81,20.45,6.81s10.22-6.81,20.45-6.81,10.22,6.81,20.44,6.81,10.22-6.81,20.45-6.81,10.22,6.81,20.44,6.81,10.23-6.81,20.45-6.81,10.22,6.81,20.45,6.81,10.22-6.81,20.45-6.81,10.22,6.81,20.44,6.81,10.23-6.81,20.45-6.81,10.22,6.81,20.44,6.81,10.23-6.81,20.45-6.81,10.22,6.81,20.45,6.81,10.22-6.81,20.44-6.81,10.23,6.81,20.45,6.81,10.23-6.81,20.45-6.81,10.23,6.81,20.45,6.81,10.23-6.81,20.45-6.81,10.23,6.81,20.45,6.81,10.23-6.81,20.45-6.81,10.23,6.81,20.46,6.81,10.23-6.81,20.45-6.81" transform="translate(0 67.91)"/><path class="cls-7" d="M20,467.19c10.23,0,10.23,6.8,20.45,6.8s10.22-6.8,20.45-6.8S71.14,474,81.36,474s10.22-6.8,20.45-6.8S112,474,122.25,474s10.23-6.8,20.45-6.8,10.22,6.8,20.45,6.8,10.22-6.8,20.45-6.8S193.82,474,204,474s10.23-6.8,20.45-6.8,10.22,6.8,20.44,6.8,10.23-6.8,20.45-6.8,10.22,6.8,20.45,6.8,10.22-6.8,20.44-6.8,10.23,6.8,20.45,6.8,10.23-6.8,20.45-6.8,10.23,6.8,20.45,6.8,10.23-6.8,20.45-6.8,10.23,6.8,20.45,6.8,10.23-6.8,20.45-6.8,10.23,6.8,20.46,6.8,10.23-6.8,20.45-6.8" transform="translate(0 67.91)"/><path class="cls-7" d="M20,454.82c10.23,0,10.23,6.8,20.45,6.8s10.22-6.8,20.45-6.8,10.22,6.8,20.44,6.8,10.22-6.8,20.45-6.8,10.22,6.8,20.44,6.8,10.23-6.8,20.45-6.8,10.22,6.8,20.45,6.8,10.22-6.8,20.45-6.8,10.22,6.8,20.44,6.8,10.23-6.8,20.45-6.8,10.22,6.8,20.44,6.8,10.23-6.8,20.45-6.8,10.22,6.8,20.45,6.8,10.22-6.8,20.44-6.8,10.23,6.8,20.45,6.8,10.23-6.8,20.45-6.8,10.23,6.8,20.45,6.8,10.23-6.8,20.45-6.8,10.23,6.8,20.45,6.8,10.23-6.8,20.45-6.8,10.23,6.8,20.46,6.8,10.23-6.8,20.45-6.8" transform="translate(0 67.91)"/><path class="cls-7" d="M20,442.45c10.23,0,10.23,6.8,20.45,6.8s10.22-6.8,20.45-6.8,10.22,6.8,20.44,6.8,10.22-6.8,20.45-6.8,10.22,6.8,20.44,6.8,10.23-6.8,20.45-6.8,10.22,6.8,20.45,6.8,10.22-6.8,20.45-6.8,10.22,6.8,20.44,6.8,10.23-6.8,20.45-6.8,10.22,6.8,20.44,6.8,10.23-6.8,20.45-6.8,10.22,6.8,20.45,6.8,10.22-6.8,20.44-6.8,10.23,6.8,20.45,6.8,10.23-6.8,20.45-6.8,10.23,6.8,20.45,6.8,10.23-6.8,20.45-6.8,10.23,6.8,20.45,6.8,10.23-6.8,20.45-6.8,10.23,6.8,20.46,6.8,10.23-6.8,20.45-6.8" transform="translate(0 67.91)"/><path class="cls-7" d="M20,430.07c10.23,0,10.23,6.81,20.45,6.81s10.22-6.81,20.45-6.81,10.22,6.81,20.44,6.81,10.22-6.81,20.45-6.81,10.22,6.81,20.44,6.81,10.23-6.81,20.45-6.81,10.22,6.81,20.45,6.81,10.22-6.81,20.45-6.81,10.22,6.81,20.44,6.81,10.23-6.81,20.45-6.81,10.22,6.81,20.44,6.81,10.23-6.81,20.45-6.81,10.22,6.81,20.45,6.81,10.22-6.81,20.44-6.81,10.23,6.81,20.45,6.81,10.23-6.81,20.45-6.81,10.23,6.81,20.45,6.81,10.23-6.81,20.45-6.81,10.23,6.81,20.45,6.81,10.23-6.81,20.45-6.81,10.23,6.81,20.46,6.81,10.23-6.81,20.45-6.81" transform="translate(0 67.91)"/><path class="cls-7" d="M20,417.7c10.23,0,10.23,6.81,20.45,6.81s10.22-6.81,20.45-6.81,10.22,6.81,20.44,6.81,10.22-6.81,20.45-6.81,10.22,6.81,20.44,6.81,10.23-6.81,20.45-6.81,10.22,6.81,20.45,6.81,10.22-6.81,20.45-6.81,10.22,6.81,20.44,6.81,10.23-6.81,20.45-6.81,10.22,6.81,20.44,6.81,10.23-6.81,20.45-6.81,10.22,6.81,20.45,6.81,10.22-6.81,20.44-6.81,10.23,6.81,20.45,6.81,10.23-6.81,20.45-6.81,10.23,6.81,20.45,6.81,10.23-6.81,20.45-6.81,10.23,6.81,20.45,6.81,10.23-6.81,20.45-6.81,10.23,6.81,20.46,6.81,10.23-6.81,20.45-6.81" transform="translate(0 67.91)"/><path class="cls-7" d="M20,405.33c10.23,0,10.23,6.8,20.45,6.8s10.22-6.8,20.45-6.8,10.22,6.8,20.44,6.8,10.22-6.8,20.45-6.8,10.22,6.8,20.44,6.8,10.23-6.8,20.45-6.8,10.22,6.8,20.45,6.8,10.22-6.8,20.45-6.8,10.22,6.8,20.44,6.8,10.23-6.8,20.45-6.8,10.22,6.8,20.44,6.8,10.23-6.8,20.45-6.8,10.22,6.8,20.45,6.8,10.22-6.8,20.44-6.8,10.23,6.8,20.45,6.8,10.23-6.8,20.45-6.8,10.23,6.8,20.45,6.8,10.23-6.8,20.45-6.8,10.23,6.8,20.45,6.8,10.23-6.8,20.45-6.8,10.23,6.8,20.46,6.8,10.23-6.8,20.45-6.8" transform="translate(0 67.91)"/><path class="cls-7" d="M20,393c10.23,0,10.23,6.8,20.45,6.8S50.69,393,60.92,393s10.22,6.8,20.44,6.8,10.22-6.8,20.45-6.8,10.22,6.8,20.44,6.8,10.23-6.8,20.45-6.8,10.22,6.8,20.45,6.8,10.22-6.8,20.45-6.8,10.22,6.8,20.44,6.8,10.23-6.8,20.45-6.8,10.22,6.8,20.44,6.8,10.23-6.8,20.45-6.8,10.22,6.8,20.45,6.8,10.22-6.8,20.44-6.8,10.23,6.8,20.45,6.8S337,393,347.17,393s10.23,6.8,20.45,6.8,10.23-6.8,20.45-6.8,10.23,6.8,20.45,6.8S418.75,393,429,393s10.23,6.8,20.46,6.8,10.23-6.8,20.45-6.8" transform="translate(0 67.91)"/><path class="cls-7" d="M20,380.59c10.23,0,10.23,6.8,20.45,6.8s10.22-6.8,20.45-6.8,10.22,6.8,20.44,6.8,10.22-6.8,20.45-6.8,10.22,6.8,20.44,6.8,10.23-6.8,20.45-6.8,10.22,6.8,20.45,6.8,10.22-6.8,20.45-6.8,10.22,6.8,20.44,6.8,10.23-6.8,20.45-6.8,10.22,6.8,20.44,6.8,10.23-6.8,20.45-6.8,10.22,6.8,20.45,6.8,10.22-6.8,20.44-6.8,10.23,6.8,20.45,6.8,10.23-6.8,20.45-6.8,10.23,6.8,20.45,6.8,10.23-6.8,20.45-6.8,10.23,6.8,20.45,6.8,10.23-6.8,20.45-6.8,10.23,6.8,20.46,6.8,10.23-6.8,20.45-6.8" transform="translate(0 67.91)"/><path class="cls-7" d="M20,368.21c10.23,0,10.23,6.81,20.45,6.81s10.22-6.81,20.45-6.81S71.14,375,81.36,375s10.22-6.81,20.45-6.81S112,375,122.25,375s10.23-6.81,20.45-6.81S152.92,375,163.15,375s10.22-6.81,20.45-6.81S193.82,375,204,375s10.23-6.81,20.45-6.81S234.71,375,244.93,375s10.23-6.81,20.45-6.81S275.6,375,285.83,375s10.22-6.81,20.44-6.81S316.5,375,326.72,375s10.23-6.81,20.45-6.81S357.4,375,367.62,375s10.23-6.81,20.45-6.81S398.3,375,408.52,375s10.23-6.81,20.45-6.81S439.2,375,449.43,375s10.23-6.81,20.45-6.81" transform="translate(0 67.91)"/><path class="cls-7" d="M20,355.84c10.23,0,10.23,6.81,20.45,6.81s10.22-6.81,20.45-6.81,10.22,6.81,20.44,6.81,10.22-6.81,20.45-6.81,10.22,6.81,20.44,6.81,10.23-6.81,20.45-6.81,10.22,6.81,20.45,6.81,10.22-6.81,20.45-6.81,10.22,6.81,20.44,6.81,10.23-6.81,20.45-6.81,10.22,6.81,20.44,6.81,10.23-6.81,20.45-6.81,10.22,6.81,20.45,6.81,10.22-6.81,20.44-6.81,10.23,6.81,20.45,6.81,10.23-6.81,20.45-6.81,10.23,6.81,20.45,6.81,10.23-6.81,20.45-6.81,10.23,6.81,20.45,6.81,10.23-6.81,20.45-6.81,10.23,6.81,20.46,6.81,10.23-6.81,20.45-6.81" transform="translate(0 67.91)"/><path class="cls-7" d="M20,343.47c10.23,0,10.23,6.8,20.45,6.8s10.22-6.8,20.45-6.8,10.22,6.8,20.44,6.8,10.22-6.8,20.45-6.8,10.22,6.8,20.44,6.8,10.23-6.8,20.45-6.8,10.22,6.8,20.45,6.8,10.22-6.8,20.45-6.8,10.22,6.8,20.44,6.8,10.23-6.8,20.45-6.8,10.22,6.8,20.44,6.8,10.23-6.8,20.45-6.8,10.22,6.8,20.45,6.8,10.22-6.8,20.44-6.8,10.23,6.8,20.45,6.8,10.23-6.8,20.45-6.8,10.23,6.8,20.45,6.8,10.23-6.8,20.45-6.8,10.23,6.8,20.45,6.8,10.23-6.8,20.45-6.8,10.23,6.8,20.46,6.8,10.23-6.8,20.45-6.8" transform="translate(0 67.91)"/><path class="cls-7" d="M20,331.1c10.23,0,10.23,6.8,20.45,6.8s10.22-6.8,20.45-6.8,10.22,6.8,20.44,6.8,10.22-6.8,20.45-6.8,10.22,6.8,20.44,6.8,10.23-6.8,20.45-6.8,10.22,6.8,20.45,6.8,10.22-6.8,20.45-6.8,10.22,6.8,20.44,6.8,10.23-6.8,20.45-6.8,10.22,6.8,20.44,6.8,10.23-6.8,20.45-6.8,10.22,6.8,20.45,6.8,10.22-6.8,20.44-6.8,10.23,6.8,20.45,6.8,10.23-6.8,20.45-6.8,10.23,6.8,20.45,6.8,10.23-6.8,20.45-6.8,10.23,6.8,20.45,6.8,10.23-6.8,20.45-6.8,10.23,6.8,20.46,6.8,10.23-6.8,20.45-6.8" transform="translate(0 67.91)"/><path class="cls-7" d="M20,318.73c10.23,0,10.23,6.8,20.45,6.8s10.22-6.8,20.45-6.8,10.22,6.8,20.44,6.8,10.22-6.8,20.45-6.8,10.22,6.8,20.44,6.8,10.23-6.8,20.45-6.8,10.22,6.8,20.45,6.8,10.22-6.8,20.45-6.8,10.22,6.8,20.44,6.8,10.23-6.8,20.45-6.8,10.22,6.8,20.44,6.8,10.23-6.8,20.45-6.8,10.22,6.8,20.45,6.8,10.22-6.8,20.44-6.8,10.23,6.8,20.45,6.8,10.23-6.8,20.45-6.8,10.23,6.8,20.45,6.8,10.23-6.8,20.45-6.8,10.23,6.8,20.45,6.8,10.23-6.8,20.45-6.8,10.23,6.8,20.46,6.8,10.23-6.8,20.45-6.8" transform="translate(0 67.91)"/><path class="cls-7" d="M20,306.35c10.23,0,10.23,6.81,20.45,6.81s10.22-6.81,20.45-6.81,10.22,6.81,20.44,6.81,10.22-6.81,20.45-6.81,10.22,6.81,20.44,6.81,10.23-6.81,20.45-6.81,10.22,6.81,20.45,6.81,10.22-6.81,20.45-6.81,10.22,6.81,20.44,6.81,10.23-6.81,20.45-6.81,10.22,6.81,20.44,6.81,10.23-6.81,20.45-6.81,10.22,6.81,20.45,6.81,10.22-6.81,20.44-6.81,10.23,6.81,20.45,6.81,10.23-6.81,20.45-6.81,10.23,6.81,20.45,6.81,10.23-6.81,20.45-6.81,10.23,6.81,20.45,6.81,10.23-6.81,20.45-6.81,10.23,6.81,20.46,6.81,10.23-6.81,20.45-6.81" transform="translate(0 67.91)"/><path class="cls-7" d="M20,294c10.23,0,10.23,6.81,20.45,6.81S50.69,294,60.92,294s10.22,6.81,20.44,6.81S91.58,294,101.81,294s10.22,6.81,20.44,6.81S132.48,294,142.7,294s10.22,6.81,20.45,6.81S173.37,294,183.6,294s10.22,6.81,20.44,6.81S214.27,294,224.49,294s10.22,6.81,20.44,6.81S255.16,294,265.38,294s10.22,6.81,20.45,6.81S296.05,294,306.27,294s10.23,6.81,20.45,6.81S337,294,347.17,294s10.23,6.81,20.45,6.81S377.85,294,388.07,294s10.23,6.81,20.45,6.81S418.75,294,429,294s10.23,6.81,20.46,6.81S459.66,294,469.88,294" transform="translate(0 67.91)"/></g><path class="cls-8" d="M228.7,126.32V72.09a2.27,2.27,0,0,1,3.27-2l51.44,25a2.27,2.27,0,0,1,.12,4L232.1,128.3A2.28,2.28,0,0,1,228.7,126.32Z" transform="translate(0 67.91)"/><line class="cls-9" x1="230.73" y1="140.71" x2="230.73" y2="269.19"/><line class="cls-10" x1="251.17" y1="295.99" x2="247.96" y2="303.31"/><polyline class="cls-11" points="241.6 317.82 60.29 731.34 197 1203.14"/><line class="cls-10" x1="199.2" y1="1210.75" x2="201.43" y2="1218.43"/><rect class="cls-12" x="210.25" y="1192.69" width="15.91" height="27.74" rx="3.08" transform="matrix(0.99, -0.15, 0.15, 0.99, -184.37, 116.31)"/></svg>