<svg id="_1" data-name="1" xmlns="http://www.w3.org/2000/svg" viewBox="0 0 700 1600"><defs><style>.cls-1,.cls-3,.cls-4,.cls-5{fill:none;stroke-miterlimit:10;}.cls-1{stroke:#85b7de;}.cls-1,.cls-3{stroke-width:6px;}.cls-2{fill:#9bc985;}.cls-3,.cls-4,.cls-5{stroke:#9bc985;}.cls-3{stroke-linecap:round;}.cls-4,.cls-5{stroke-width:3px;}.cls-5{stroke-dasharray:15.95 15.95;}</style></defs><path class="cls-1" d="M514.68,453.07c-28.9,49.4-92.28,164.06-79.75,265.76,21.65,175.75,28.48,317.87,28.48,317.87-3.71,53.37-18.44,103.82-43,151.12-16.11,31.07-19.77,62.72-13.43,96.82s11.23,68.47,15.38,102.9c1.64,13.58.79,27.8-1.14,41.41-3,20.91-14.35,28.33-35.1,25.26-44-6.5-77.64-44.66-78.53-89.2a111.57,111.57,0,0,1,.62-18c3.49-24.3-2.86-45.85-17.55-65.12-12.07-15.83-24.1-31.69-36.67-47.11a209.39,209.39,0,0,1-44.2-96c-6.49-35.17-16.69-69.14-31.84-101.67-17.22-37-23.25-76.73-28.74-116.73-5-36.45.11-71.79,7.07-107.37a1165.38,1165.38,0,0,1,58.45-202.32c26.46-67.55,38.06-138,38.82-210.72-2-23-4.42-46-5.94-69-1.9-29,3.14-57.2,10.87-85,6.13-22,15.33-42.61,29.54-60.77,26.46-33.8,61.71-48.36,103.7-44.44,50.71,4.74,123,22.74,150.9,75.54C595.49,316.23,514.68,453.07,514.68,453.07Z"/><path class="cls-2" d="M408.22,277.59V223.36a2.27,2.27,0,0,1,3.27-2l51.44,25a2.27,2.27,0,0,1,.13,4l-51.44,29.19A2.28,2.28,0,0,1,408.22,277.59Z"/><line class="cls-3" x1="410.25" y1="224.08" x2="410.25" y2="352.55"/><line class="cls-4" x1="373.07" y1="437.09" x2="371.3" y2="444.89"/><polyline class="cls-5" points="367.76 460.44 323.46 655.48 363.17 1307.46"/><line class="cls-4" x1="363.65" y1="1315.42" x2="364.14" y2="1323.41"/><rect class="cls-2" x="362.88" y="1369.82" width="15.91" height="27.74" rx="3.08" transform="matrix(0.99, -0.15, 0.15, 0.99, -209.98, 74.2)"/></svg>