<svg id="Ebene_1" data-name="Ebene 1" xmlns="http://www.w3.org/2000/svg" viewBox="0 0 37.43 53.79"><defs><style>.cls-1{fill:#293133;}</style></defs><path class="cls-1" d="M14.25,5.59A127.15,127.15,0,0,1,30.61,4.21c11.83,0,19.85,4.05,19.85,14.17,0,6.16-3,9.56-7.37,11.18v.33c5.91,1.86,8.58,5.75,8.58,12.47,0,11.43-7.85,15.64-21,15.64a131,131,0,0,1-16.44-1.22Zm18,20.9c5.11,0,7.86-1.71,7.86-6.65,0-5.67-3.73-6.72-9.56-6.72-1.62,0-3.73.08-6.08.32V26.49ZM30.85,49.17c6.4,0,10.45-1.13,10.45-7.29,0-5.35-3.07-7.29-8.66-7.29H24.45V48.85C27,49.09,29.15,49.17,30.85,49.17Z" transform="translate(-14.25 -4.21)"/></svg>