<?xml version="1.0" encoding="utf-8"?>
<!-- Generator: Adobe Illustrator 24.3.0, SVG Export Plug-In . SVG Version: 6.00 Build 0)  -->
<svg version="1.1" id="Ebene_1" xmlns="http://www.w3.org/2000/svg" xmlns:xlink="http://www.w3.org/1999/xlink" x="0px" y="0px"
	 viewBox="0 0 32 32" style="enable-background:new 0 0 32 32;" xml:space="preserve">
<style type="text/css">
	.st0{fill:#293133;}
	.st1{fill:#90EE90;}
</style>
<g>
	<rect y="0" class="st0" width="32" height="32"/>
	<g>
		<path class="st1" d="M9.18,5.86c1.91-0.28,4.52-0.53,6.34-0.53c4.58,0,7.69,1.57,7.69,5.49c0,2.39-1.16,3.7-2.86,4.33v0.13
			c2.29,0.72,3.33,2.23,3.33,4.83c0,4.43-3.04,6.06-8.13,6.06c-1.76,0-4.43-0.19-6.37-0.47V5.86z M16.14,13.96
			c1.98,0,3.04-0.66,3.04-2.57c0-2.2-1.44-2.61-3.7-2.61c-0.63,0-1.44,0.03-2.35,0.13v5.05H16.14z M15.61,22.75
			c2.48,0,4.05-0.44,4.05-2.82c0-2.07-1.19-2.82-3.36-2.82h-3.17v5.52C14.1,22.72,14.95,22.75,15.61,22.75z"/>
	</g>
</g>
</svg>
