<svg id="Ebene_1" data-name="Ebene 1" xmlns="http://www.w3.org/2000/svg" viewBox="0 0 64 64"><defs><style>.cls-1{fill:#e6e6e6;}.cls-2{fill:#293133;}</style></defs><rect class="cls-1" x="-6" y="-5" width="82" height="79"/><path class="cls-2" d="M40,20c0-5.66-3.73-6.71-9.55-6.71-1.62,0-3.73.08-6.08.32v13h7.77C37.28,26.61,40,24.91,40,20Z"/><path class="cls-2" d="M32.59,34.7H24.41V49c2.51.24,4.7.32,6.4.32,6.39,0,10.44-1.13,10.44-7.28C41.25,36.65,38.17,34.7,32.59,34.7Z"/><path class="cls-2" d="M0,0V64H64V0ZM30.65,58.09a130.78,130.78,0,0,1-16.43-1.21V5.73A127,127,0,0,1,30.57,4.35c11.81,0,19.82,4.05,19.82,14.17,0,6.15-3,9.55-7.36,11.17V30c5.91,1.86,8.58,5.75,8.58,12.46C51.61,53.88,43.76,58.09,30.65,58.09Z"/></svg>